<svg class="main-svg" xmlns="http://www.w3.org/2000/svg" xmlns:xlink="http://www.w3.org/1999/xlink" width="605" height="491" style=""><rect x="0" y="0" width="605" height="491" style="fill: rgb(255, 255, 255); fill-opacity: 1;"/><defs id="defs-b37101"><g class="clips"><clipPath id="clipb37101xyplot" class="plotclip"><rect width="505" height="278"/></clipPath><clipPath class="axesclip" id="clipb37101x"><rect x="50" y="0" width="505" height="491"/></clipPath><clipPath class="axesclip" id="clipb37101y"><rect x="0" y="60" width="605" height="278"/></clipPath><clipPath class="axesclip" id="clipb37101xy"><rect x="50" y="60" width="505" height="278"/></clipPath></g><g class="gradients"/><g class="patterns"/></defs><g class="bglayer"><rect class="bg" x="50" y="60" width="505" height="278" style="fill: rgb(229, 236, 246); fill-opacity: 1; stroke-width: 0;"/></g><g class="layer-below"><g class="imagelayer"/><g class="shapelayer"/></g><g class="cartesianlayer"><g class="subplot xy"><g class="layer-subplot"><g class="shapelayer"/><g class="imagelayer"/></g><g class="gridlayer"><g class="x"><path class="xgrid crisp" transform="translate(67.01,0)" d="M0,60v278" style="stroke: rgb(255, 255, 255); stroke-opacity: 1; stroke-width: 1px;"/><path class="xgrid crisp" transform="translate(184.84,0)" d="M0,60v278" style="stroke: rgb(255, 255, 255); stroke-opacity: 1; stroke-width: 1px;"/><path class="xgrid crisp" transform="translate(302.68,0)" d="M0,60v278" style="stroke: rgb(255, 255, 255); stroke-opacity: 1; stroke-width: 1px;"/><path class="xgrid crisp" transform="translate(420.51,0)" d="M0,60v278" style="stroke: rgb(255, 255, 255); stroke-opacity: 1; stroke-width: 1px;"/><path class="xgrid crisp" transform="translate(538.3399999999999,0)" d="M0,60v278" style="stroke: rgb(255, 255, 255); stroke-opacity: 1; stroke-width: 1px;"/></g><g class="y"><path class="ygrid crisp" transform="translate(0,285.74)" d="M50,0h505" style="stroke: rgb(255, 255, 255); stroke-opacity: 1; stroke-width: 1px;"/><path class="ygrid crisp" transform="translate(0,244.04)" d="M50,0h505" style="stroke: rgb(255, 255, 255); stroke-opacity: 1; stroke-width: 1px;"/><path class="ygrid crisp" transform="translate(0,202.34)" d="M50,0h505" style="stroke: rgb(255, 255, 255); stroke-opacity: 1; stroke-width: 1px;"/><path class="ygrid crisp" transform="translate(0,160.64)" d="M50,0h505" style="stroke: rgb(255, 255, 255); stroke-opacity: 1; stroke-width: 1px;"/><path class="ygrid crisp" transform="translate(0,118.94)" d="M50,0h505" style="stroke: rgb(255, 255, 255); stroke-opacity: 1; stroke-width: 1px;"/><path class="ygrid crisp" transform="translate(0,77.24)" d="M50,0h505" style="stroke: rgb(255, 255, 255); stroke-opacity: 1; stroke-width: 1px;"/></g></g><g class="zerolinelayer"><path class="yzl zl crisp" transform="translate(0,327.44)" d="M50,0h505" style="stroke: rgb(255, 255, 255); stroke-opacity: 1; stroke-width: 2px;"/></g><path class="xlines-below"/><path class="ylines-below"/><g class="overlines-below"/><g class="xaxislayer-below"/><g class="yaxislayer-below"/><g class="overaxes-below"/><g class="plot" transform="translate(50,60)" clip-path="url(#clipb37101xyplot)"><g class="scatterlayer mlayer"><g class="trace scatter traceb0e36b" style="stroke-miterlimit: 2; opacity: 1;"><g class="fills"/><g class="errorbars"/><g class="lines"><path class="js-line" d="M-5638.99,197.38L-5632.15,217.4L-5588.32,17.24L-5553.25,160.68L-5553.07,170.69L-5540.8,37.25L-5509.23,224.07L-5473.11,150.68L-5472.94,120.65L-5447.34,220.73L-5438.04,50.6L-5391.75,177.36L-5391.58,184.04L-5379.48,210.72L-5370.71,47.26L-5351.42,170.69L-5250.25,147.34L-5237.27,17.24L-5193.78,217.4L-5183.09,167.36L-5149.25,147.34L-5102.25,57.27L-5076.3,217.4L-5075.25,164.02L-5075.07,134L-5071.04,40.59L-5023.17,214.06L-5000.38,127.32L-5000.2,170.69L-4975.65,217.4L-4933.92,37.25L-4926.56,197.38L-4926.38,197.38L-4870.09,257.43L-4854.49,30.58L-4853.44,164.02L-4853.26,177.36L-4819.42,13.9L-4808.9,220.73L-4780.14,93.96L-4779.97,113.98L-4755.59,217.4L-4730.34,60.6L-4707.2,174.03L-4707.02,170.69L-4660.2,217.4L-4651.61,90.63L-4637.58,180.7L-4637.41,160.68L-4629.52,73.95L-4590.24,227.4L-4568.5,210.72L-4568.32,194.04L-4563.94,110.64L-4534.83,230.74L-4500.81,180.7L-4500.64,190.71L-4454.52,234.08L-4449.61,100.64L-4432.78,210.72L-4432.6,207.39L-4420.68,237.41L-4370.18,107.31L-4367.02,207.39L-4366.85,214.06L-4351.42,227.4L-4316.52,123.99L-4302.49,204.05L-4302.32,217.4L-4292.85,140.67L-4239.37,230.74L-4238.84,217.4L-4238.67,220.73L-4218.85,234.08L-4192.73,83.96L-4174.32,140.67L-4174.14,157.35L-4165.72,224.07L-4141.53,134L-4112.94,187.37L-4112.77,214.06L-4090.85,130.66L-4069.11,234.08L-4051.57,194.04L-4051.4,200.72L-4024.04,90.63L-4012.47,230.74L-3992.31,177.36L-3992.13,167.36L-3982.49,224.07L-3973.19,117.32L-3932.51,204.05L-3932.34,190.71L-3924.27,117.32L-3879.38,224.07L-3873.95,210.72L-3873.77,197.38L-3849.75,220.73L-3822.04,100.64L-3816.08,174.03L-3815.91,200.72L-3795.92,224.07L-3787.68,93.96L-3757.16,144L-3756.99,150.68L-3737.35,90.63L-3728.76,227.4L-3700.53,200.72L-3700.35,200.72L-3670.54,93.96L-3662.48,217.4L-3647.4,177.36L-3647.22,160.68L-3630.39,220.73L-3608.3,87.29L-3592.34,210.72L-3592.16,200.72L-3578.14,214.06L-3569.37,120.65L-3547.98,177.36L-3547.8,197.38L-3545.7,217.4L-3501.68,117.32L-3495.2,194.04L-3495.02,197.38L-3488.18,224.07L-3484.85,100.64L-3444.17,174.03L-3443.99,174.03L-3417.17,117.32L-3408.93,224.07L-3392.44,194.04L-3392.27,180.7L-3377.01,224.07L-3351.59,123.99L-3341.94,184.04L-3341.77,184.04L-3316.52,117.32L-3308.63,220.73L-3293.2,180.7L-3293.02,164.02L-3285.48,117.32L-3278.47,224.07L-3242.7,214.06L-3242.52,200.72L-3239.19,220.73L-3232.88,113.98L-3194.48,207.39L-3194.3,194.04L-3184.48,120.65L-3158.7,220.73L-3146.96,190.71L-3146.78,194.04L-3131.35,117.32L-3107.68,224.07L-3100.66,184.04L-3100.49,177.36L-3081.38,147.34L-3058.41,224.07L-3054.2,187.37L-3054.02,190.71L-3030.53,83.96L-3021.76,224.07L-3014.92,180.7L-3014.74,103.97L-3014.39,100.64L-2971.26,220.73L-2969.51,214.06L-2969.33,207.39L-2956.53,224.07L-2947.59,127.32L-2925.84,217.4L-2925.67,220.73L-2897.26,150.68L-2887.27,227.4L-2879.2,167.36L-2879.03,184.04L-2867.28,140.67L-2853.07,230.74L-2836.07,214.06L-2835.89,177.36L-2827.82,147.34L-2805.2,240.75L-2793.11,217.4L-2792.93,207.39L-2786.27,230.74L-2779.25,154.01L-2752.07,197.38L-2751.9,180.7L-2727.88,147.34L-2718.41,224.07L-2711.04,177.36L-2710.87,177.36L-2689.65,227.4L-2677.55,140.67L-2671.59,197.38L-2671.41,207.39L-2667.38,140.67L-2636.17,230.74L-2631.61,207.39L-2631.44,204.05L-2601.63,264.1L-2599.52,120.65L-2592.68,187.37L-2592.51,174.03L-2577.95,150.68L-2554.81,227.4L-2553.76,194.04L-2553.58,180.7L-2542.53,147.34L-2517.46,227.4L-2515.36,200.72L-2515.18,200.72L-2498.52,144L-2484.32,230.74L-2477.48,214.06L-2477.31,210.72L-2463.98,154.01L-2452.23,227.4L-2440.83,190.71L-2440.66,197.38L-2412.78,220.73L-2409.1,147.34L-2408.22,164.02L-2408.04,150.68L-2397.35,227.4L-2390.86,147.34L-2371.75,207.39L-2371.57,200.72L-2343.52,247.42L-2341.76,144L-2335.8,207.39L-2335.62,204.05L-2325.28,150.68L-2303.89,227.4L-2301.78,207.39L-2301.61,194.04L-2292.84,224.07L-2275.66,160.68L-2267.77,190.71L-2267.59,187.37L-2257.07,154.01L-2247.95,227.4L-2233.22,217.4L-2233.05,214.06L-2213.41,147.34L-2199.73,230.74L-2199.56,220.73L-2199.38,214.06L-2198.5,227.4L-2192.19,154.01L-2165.71,197.38L-2165.54,220.73L-2160.98,140.67L-2147.3,227.4L-2132.57,200.72L-2132.4,210.72L-2130.82,234.08L-2120.65,157.35L-2100.66,217.4L-2100.48,220.73L-2099.26,234.08L-2072.25,150.68L-2068.75,204.05L-2068.57,214.06L-2060.33,227.4L-2038.41,147.34L-2036.83,164.02L-2036.66,180.7L-2022.28,144L-2012.11,217.4L-2006.32,194.04L-2006.15,177.36L-2004.39,154.01L-1997.03,217.4L-1976.51,194.04L-1976.34,207.39L-1961.96,220.73L-1947.06,144L-1946.7,184.04L-1946.53,204.05L-1928.99,220.73L-1922.16,147.34L-1917.42,197.38L-1917.25,204.05L-1904.1,157.35L-1897.26,224.07L-1890.07,184.04L-1889.89,167.36L-1887.79,157.35L-1866.05,220.73L-1860.78,204.05L-1860.61,197.38L-1843.07,227.4L-1837.81,127.32L-1833.26,200.72L-1833.08,204.05L-1826.42,214.06L-1818.7,154.01L-1805.37,194.04L-1805.2,204.05L-1803.27,144L-1798.89,214.06L-1778.9,190.71L-1778.72,197.38L-1775.57,230.74L-1770.83,147.34L-1751.72,184.04L-1751.54,194.04L-1745.06,227.4L-1742.43,170.69L-1725.42,204.05L-1725.24,220.73L-1707.88,227.4L-1701.22,157.35L-1699.11,194.04L-1698.94,207.39L-1684.91,147.34L-1682.28,227.4L-1673.51,204.05L-1673.34,217.4L-1668.25,157.35L-1657.56,224.07L-1648.09,207.39L-1647.91,214.06L-1647.04,227.4L-1638.8,167.36L-1623.19,204.05L-1623.01,217.4L-1622.84,224.07L-1601.8,164.02L-1599.69,170.69L-1599.52,174.03L-1590.75,157.35L-1579.53,220.73L-1574.79,197.38L-1574.62,190.71L-1566.03,150.68L-1563.75,224.07L-1551.12,187.37L-1550.95,177.36L-1550.07,147.34L-1546.39,237.41L-1528.33,200.72L-1528.15,210.72L-1512.02,227.4L-1505.36,150.68L-1504.48,177.36L-1504.3,190.71L-1499.92,157.35L-1490.98,224.07L-1482.21,167.36L-1482.03,174.03L-1471.51,154.01L-1460.64,220.73L-1459.77,190.71L-1459.59,170.69L-1448.89,147.34L-1445.39,220.73L-1437.85,190.71L-1437.67,194.04L-1431.18,150.68L-1421.72,230.74L-1418.03,200.72L-1417.86,170.69L-1416.63,154.01L-1404.71,230.74L-1395.59,220.73L-1395.41,224.07L-1391.03,234.08L-1380.51,167.36L-1374.02,197.38L-1373.85,204.05L-1372.79,230.74L-1368.76,167.36L-1353.51,187.37L-1353.33,187.37L-1340.18,227.4L-1332.64,140.67L-1332.11,160.68L-1331.94,164.02L-1330.53,150.68L-1319.14,220.73L-1310.37,217.4L-1310.19,214.06L-1306.69,224.07L-1296.34,177.36L-1290.03,190.71L-1289.85,190.71L-1281.26,170.69L-1274.6,217.4L-1270.22,200.72L-1270.04,200.72L-1264.6,170.69L-1256.01,230.74L-1250.58,194.04L-1250.4,207.39L-1247.95,157.35L-1240.58,227.4L-1231.29,174.03L-1231.11,167.36L-1230.06,164.02L-1223.92,234.08L-1212.35,184.04L-1212.18,180.7L-1205.51,234.08L-1195.34,144L-1193.06,210.72L-1192.89,210.72L-1183.77,237.41L-1181.84,167.36L-1174.65,207.39L-1174.48,214.06L-1170.27,237.41L-1162.73,194.04L-1157.64,217.4L-1157.47,207.39L-1155.36,240.75L-1147.47,150.68L-1140.63,204.05L-1140.46,200.72L-1137.3,217.4L-1129.76,150.68L-1123.27,197.38L-1123.1,207.39L-1112.23,157.35L-1106.27,224.07L-1106.09,214.06L-1105.91,210.72L-1103.64,220.73L-1095.92,150.68L-1089.08,204.05L-1088.91,210.72L-1086.8,227.4L-1079.44,150.68L-1072.07,190.71L-1071.9,194.04L-1069.27,230.74L-1062.25,160.68L-1055.24,214.06L-1055.06,207.39L-1053.14,224.07L-1050.15,167.36L-1039.28,210.72L-1039.11,220.73L-1037.53,227.4L-1033.67,123.99L-1028.76,180.7L-1028.59,160.68L-1019.47,227.4L-1013.33,174.03L-1013.16,137.33L-1002.11,224.07L-997.2,200.72L-997.02,180.7L-995.27,154.01L-985.1,227.4L-981.77,180.7L-981.59,184.04L-978.44,154.01L-969.32,234.08L-966.69,180.7L-966.51,154.01L-952.66,227.4L-951.43,207.39L-951.26,210.72L-950.56,134L-939.86,220.73L-938.11,197.38L-937.93,210.72L-934.78,224.07L-933.55,167.36L-924.61,210.72L-924.43,214.06L-920.4,234.08L-915.49,177.36L-909.88,194.04L-909.7,194.04L-903.39,230.74L-899.71,170.69L-895.5,197.38L-895.32,184.04L-884.1,227.4L-882.7,154.01L-881.65,190.71L-881.47,174.03L-877.96,150.68L-869.02,227.4L-868.85,227.4L-868.67,234.08L-859.9,154.01L-854.99,200.72L-854.82,207.39L-851.14,227.4L-843.95,134L-841.14,190.71L-840.97,207.39L-834.13,227.4L-830.8,147.34L-827.81,164.02L-827.64,190.71L-826.06,170.69L-819.4,234.08L-813.44,217.4L-813.26,217.4L-810.45,157.35L-802.39,237.41L-800.64,214.06L-800.46,217.4L-797.65,100.64L-789.94,184.04L-789.76,190.71L-784.5,220.73L-779.07,154.01L-777.84,187.37L-777.66,177.36L-775.56,164.02L-767.85,220.73L-766.97,220.73L-766.79,227.4L-758.73,147.34L-754.52,207.39L-754.34,214.06L-749.96,227.4L-745.23,164.02L-741.72,177.36L-741.54,177.36L-741.19,167.36L-733.3,227.4L-730.5,180.7L-730.32,187.37L-728.04,214.06L-724.36,150.68L-720.68,200.72L-720.5,204.05L-716.29,227.4L-710.51,154.01L-708.23,164.02L-708.05,170.69L-707.18,164.02L-702.27,224.07L-699.28,207.39L-699.11,214.06L-696.83,184.04L-689.29,220.73L-688.59,210.72L-688.41,204.05L-685.26,230.74L-680.35,150.68L-677.37,214.06L-677.19,210.72L-675.09,134L-667.9,224.07L-666.67,207.39L-666.49,217.4L-665.97,234.08L-659.48,150.68L-656.85,187.37L-656.68,180.7L-648.96,227.4L-647.38,150.68L-646.15,190.71L-645.98,190.71L-644.05,140.67L-637.91,210.72L-635.81,190.71L-635.63,200.72L-632.83,227.4L-625.64,157.35L-624.76,164.02L-624.59,164.02L-624.24,157.35L-618.45,210.72L-616.7,197.38L-616.52,210.72L-615.47,227.4L-609.16,147.34L-607.75,174.03L-607.58,177.36L-606.18,144L-600.91,227.4L-598.64,224.07L-598.46,220.73L-598.11,224.07L-590.57,154.01L-588.64,194.04L-588.47,200.72L-581.63,227.4L-579.7,187.37L-579.52,187.37L-579.35,190.71L-572.86,174.03L-569.7,220.73L-569.53,210.72L-567.42,227.4L-563.04,174.03L-560.41,214.06L-560.23,214.06L-559.71,227.4L-556.2,147.34L-552.52,210.72L-552.34,194.04L-547.96,224.07L-546.56,174.03L-543.4,210.72L-543.23,194.04L-541.47,157.35L-536.39,217.4L-535.34,204.05L-535.16,210.72L-533.41,227.4L-529.55,170.69L-526.74,204.05L-526.57,217.4L-525.87,224.07L-525.34,147.34L-525.16,134L-516.4,210.72L-516.22,207.39L-516.05,207.39L-513.94,220.73L-513.07,187.37L-508.33,197.38L-508.16,190.71L-506.75,157.35L-504.12,214.06L-500.62,204.05L-500.44,207.39L-496.23,187.37L-492.73,227.4L-492.37,210.72L-492.2,204.05L-490.1,157.35L-484.84,224.07L-483.96,217.4L-483.78,210.72L-480.8,234.08L-479.93,190.71L-475.89,220.73L-475.72,217.4L-473.44,180.7L-469.93,227.4L-468.18,217.4L-468,217.4L-464.32,240.75L-460.81,200.72L-460.64,214.06L-460.46,220.73L-458.36,230.74L-455.55,187.37L-453.97,217.4L-453.8,197.38L-447.49,237.41L-446.26,217.4L-446.08,197.38L-442.05,214.06L-440.12,157.35L-439.95,180.7L-439.77,154.01L-438.72,147.34L-430.13,227.4L-429.95,217.4L-429.78,207.39L-429.25,217.4L-426.8,164.02L-423.99,180.7L-423.81,174.03L-421.53,160.68L-416.45,214.06L-416.27,210.72L-416.1,204.05L-412.07,224.07L-411.72,180.7L-410.49,194.04L-410.31,174.03L-408.21,214.06L-405.23,144L-403.47,197.38L-403.3,184.04L-396.46,220.73L-396.28,217.4L-396.11,214.06L-392.25,220.73L-388.74,147.34L-388.22,160.68L-388.04,180.7L-386.82,170.69L-385.24,214.06L-382.26,207.39L-382.08,210.72L-378.57,227.4L-377.7,187.37L-376.82,197.38L-376.65,187.37L-374.37,204.05L-373.49,167.36L-371.21,180.7L-371.03,170.69L-363.67,220.73L-363.49,217.4L-363.32,214.06L-361.74,227.4L-359.46,177.36L-357.53,214.06L-357.36,190.71L-356.66,174.03L-356.48,200.72L-354.55,177.36L-354.38,160.68L-349.12,217.4L-348.24,194.04L-348.06,204.05L-347.19,174.03L-344.91,217.4L-342.28,197.38L-342.1,197.38L-341.23,130.66L-340.87,224.07L-338.77,174.03L-338.6,197.38L-334.74,157.35L-333.34,217.4L-332.98,204.05L-332.81,200.72L-331.06,227.4L-328.07,184.04L-327.9,174.03L-326.15,160.68L-323.87,230.74L-322.29,180.7L-322.11,177.36L-320.89,174.03L-316.5,210.72L-315.62,200.72L-315.45,197.38L-312.29,224.07L-310.36,184.04L-310.19,190.71L-310.01,177.36L-307.21,217.4L-305.1,157.35L-304.93,164.02L-304.75,154.01L-299.67,224.07L-299.32,197.38L-299.14,200.72L-298.09,180.7L-297.74,217.4L-294.93,204.05L-294.76,210.72L-292.83,220.73L-289.32,154.01L-289.15,157.35L-288.97,150.68L-285.29,197.38L-285.11,190.71L-284.94,187.37L-280.91,217.4L-280.73,214.06L-280.56,197.38L-278.45,220.73L-276.87,177.36L-275.12,184.04L-274.94,190.71L-273.02,207.39L-270.03,170.69L-269.86,174.03L-269.68,190.71L-267.23,220.73L-264.77,204.05L-264.6,204.05L-264.25,190.71L-261.79,224.07L-260.04,207.39L-259.86,200.72L-257.59,230.74L-254.43,147.34L-253.2,150.68L-253.03,160.68L-252.85,147.34L-250.92,214.06L-249.34,204.05L-249.17,217.4L-246.54,184.04L-245.49,224.07L-244.61,207.39L-244.43,217.4L-244.08,224.07L-242.68,180.7L-240.23,204.05L-240.05,217.4L-238.47,144L-235.32,184.04L-235.14,187.37L-230.76,227.4L-230.41,224.07L-230.23,207.39L-229.53,197.38L-228.83,227.4L-228.65,210.72L-228.13,227.4L-226.2,180.7L-224.8,200.72L-224.62,194.04L-224.09,190.71L-223.74,217.4L-221.46,204.05L-221.29,210.72L-219.36,180.7L-217.43,214.06L-217.26,214.06L-216.38,204.05L-214.27,224.07L-213.75,217.4L-213.57,227.4L-209.01,164.02L-208.31,187.37L-208.14,190.71L-207.26,180.7L-206.91,220.73L-204.81,190.71L-204.63,187.37L-204.45,194.04L-204.28,177.36L-203.93,180.7L-203.75,157.35L-203.58,134L-202.88,167.36L-202.7,164.02L-198.67,220.73L-198.14,207.39L-197.97,200.72L-196.39,190.71L-194.46,230.74L-194.11,214.06L-193.93,214.06L-193.76,217.4L-193.23,190.71L-191.48,204.05L-191.3,194.04L-190.25,217.4L-187.62,177.36L-187.45,180.7L-187.27,187.37L-186.74,130.66L-184.29,190.71L-184.11,197.38L-183.59,194.04L-182.36,220.73L-181.13,210.72L-180.96,204.05L-180.43,217.4L-179.38,197.38L-177.98,210.72L-177.8,214.06L-177.63,224.07L-175.35,190.71L-175.17,194.04L-175,177.36L-172.54,224.07L-171.66,200.72L-171.49,187.37L-171.14,190.71L-170.79,174.03L-170.61,154.01L-170.44,144L-168.16,180.7L-167.98,174.03L-165.53,210.72L-164.48,207.39L-164.3,200.72L-163.95,217.4L-162.37,177.36L-161.49,200.72L-161.32,210.72L-160.79,227.4L-159.22,200.72L-159.04,200.72L-158.69,204.05L-158.51,194.04L-157.99,194.04L-157.81,180.7L-155.71,214.06L-154.13,194.04L-153.95,194.04L-152.03,170.69L-150.97,190.71L-150.8,207.39L-150.27,224.07L-149.92,197.38L-149.05,220.73L-148.87,224.07L-145.54,197.38L-145.36,207.39L-143.96,234.08L-142.38,217.4L-142.21,190.71L-142.03,180.7L-139.75,200.72L-139.4,190.71L-139.23,194.04L-138.17,220.73L-137.12,164.02L-136.77,170.69L-136.6,170.69L-135.37,160.68L-134.67,190.71L-134.49,190.71L-134.32,197.38L-133.97,194.04L-133.44,214.06L-133.26,204.05L-133.09,214.06L-132.74,220.73L-130.46,204.05L-130.28,220.73L-128.7,190.71L-127.83,220.73L-127.65,224.07L-127.13,240.75L-126.25,210.72L-125.2,224.07L-125.02,217.4L-123.8,184.04L-122.39,194.04L-122.22,194.04L-121.16,200.72L-119.76,160.68L-119.41,184.04L-119.24,187.37L-118.89,167.36L-117.48,184.04L-117.31,197.38L-114.5,220.73L-114.33,207.39L-112.4,227.4L-112.22,210.72L-111.52,194.04L-111.35,230.74L-110.82,217.4L-110.64,224.07L-106.96,177.36L-106.79,197.38L-104.68,167.36L-104.51,177.36L-103.63,123.99L-103.45,130.66L-102.75,144L-102.58,174.03L-100.12,214.06L-99.95,217.4L-98.72,200.72L-98.55,224.07L-96.79,207.39L-96.62,227.4L-96.44,224.07L-96.27,224.07L-95.39,234.08L-95.21,214.06L-94.51,220.73L-94.34,214.06L-93.81,230.74L-92.58,194.04L-92.41,210.72L-92.23,200.72L-91.18,137.33L-91.01,140.67L-90.83,120.65L-90.48,144L-90.3,137.33L-90.13,154.01L-89.43,190.71L-89.25,174.03L-89.08,123.99L-87.5,204.05L-87.32,194.04L-87.15,187.37L-86.45,197.38L-85.39,174.03L-85.04,180.7L-84.87,184.04L-84.34,170.69L-83.99,197.38L-83.82,204.05L-83.29,194.04L-82.94,210.72L-82.41,204.05L-82.24,214.06L-81.71,200.72L-80.66,214.06L-80.48,207.39L-79.61,214.06L-79.08,190.71L-78.73,210.72L-78.56,214.06L-78.2,197.38L-76.98,220.73L-76.8,217.4L-76.63,224.07L-76.28,180.7L-74.7,190.71L-74.52,190.71L-73.65,160.68L-72.94,194.04L-72.77,190.71L-71.54,160.68L-71.19,184.04L-71.02,194.04L-69.44,160.68L-68.74,164.02L-68.56,174.03L-66.28,207.39L-66.11,200.72L-65.93,197.38L-65.58,217.4L-65.23,200.72L-65.05,214.06L-64.7,214.06L-64.53,200.72L-64,220.73L-63.65,210.72L-63.48,200.72L-63.12,190.71L-62.42,214.06L-62.07,210.72L-61.9,214.06L-61.55,207.39L-60.67,224.07L-60.49,227.4L-59.79,230.74L-58.74,200.72L-58.57,207.39L-58.39,224.07L-58.04,180.7L-56.81,190.71L-56.64,194.04L-55.59,200.72L-55.06,170.69L-54.88,197.38L-54.71,200.72L-54.53,170.69L-54.18,164.02L-54.01,194.04L-53.66,190.71L-52.43,200.72L-52.25,197.38L-51.9,204.05L-51.55,194.04L-51.38,197.38L-51.2,180.7L-50.85,167.36L-50.15,207.39L-49.97,207.39L-49.8,204.05L-49.45,220.73L-49.27,214.06L-49.1,227.4L-47.34,187.37L-47.17,200.72L-46.29,177.36L-45.94,210.72L-45.77,220.73L-44.54,170.69L-44.36,210.72L-44.19,217.4L-43.66,224.07L-43.49,207.39L-43.31,194.04L-42.78,200.72L-42.61,187.37L-42.43,180.7L-41.73,177.36L-40.68,197.38L-40.51,190.71L-39.98,180.7L-38.58,217.4L-38.4,217.4L-36.65,184.04L-35.95,190.71L-35.77,190.71L-35.42,164.02L-34.72,174.03L-34.54,180.7L-33.67,164.02L-33.32,177.36L-33.14,184.04L-31.74,214.06L-31.56,200.72L-31.04,220.73L-30.69,197.38L-30.34,214.06L-30.16,204.05L-29.63,207.39L-29.46,194.04L-29.28,200.72L-29.11,210.72L-28.58,214.06L-28.41,200.72L-28.06,210.72L-27.88,217.4L-27.53,204.05L-26.65,210.72L-26.48,214.06L-26.13,220.73L-25.95,200.72L-24.9,214.06L-24.72,210.72L-24.55,194.04L-24.37,180.7L-23.5,190.71L-23.32,187.37L-22.97,177.36L-22.27,194.04L-22.09,190.71L-21.57,180.7L-21.39,187.37L-21.22,210.72L-20.87,214.06L-20.69,200.72L-19.99,180.7L-19.81,157.35L-19.64,134L-19.29,164.02L-18.94,150.68L-18.76,147.34L-18.41,117.32L-17.89,160.68L-17.71,174.03L-16.66,170.69L-16.48,180.7L-15.43,210.72L-15.26,207.39L-14.73,214.06L-14.55,204.05L-14.38,197.38L-13.5,207.39L-13.15,204.05L-12.98,204.05L-12.45,210.72L-12.27,197.38L-12.1,210.72L-11.75,197.38L-11.4,217.4L-11.22,204.05L-11.05,207.39L-10.87,217.4L-10.35,214.06L-10.17,204.05L-9.64,194.04L-9.29,210.72L-9.12,200.72L-8.59,210.72L-8.24,207.39L-8.07,190.71L-7.89,174.03L-7.36,194.04L-7.19,184.04L-7.01,184.04L-6.49,197.38L-6.31,180.7L-6.14,177.36L-5.09,197.38L-4.91,187.37L-4.21,220.73L-4.03,217.4L-3.86,214.06L-2.63,170.69L-2.45,180.7L-1.93,204.05L-1.58,187.37L-1.4,170.69L-0.88,197.38L-0.53,187.37L-0.35,187.37L0.35,204.05L0.53,200.72L0.7,197.38L1.93,220.73L2.1,214.06L2.28,207.39L2.63,220.73L2.81,220.73L3.33,220.73L3.51,204.05L4.21,177.36L4.56,187.37L4.73,197.38L5.26,187.37L5.44,194.04L5.61,197.38L5.79,194.04L5.96,174.03L6.31,170.69L6.49,177.36L6.66,177.36L7.72,220.73L8.24,217.4L8.42,217.4L8.77,214.06L9.12,224.07L9.29,220.73L9.82,227.4L9.99,220.73L10.17,194.04L10.35,200.72L10.52,167.36L11.05,154.01L11.22,170.69L11.57,160.68L11.75,187.37L11.92,170.69L12.45,180.7L12.63,210.72L12.8,214.06L13.33,210.72L13.5,210.72L13.68,210.72L13.85,217.4L14.03,220.73L14.2,207.39L14.9,197.38L15.08,200.72L15.26,207.39L15.43,207.39L15.61,187.37L15.96,197.38L16.31,187.37L16.48,194.04L17.53,214.06L17.71,217.4L17.89,224.07L18.24,210.72L18.41,207.39L18.76,217.4L18.94,210.72L19.11,207.39L19.64,220.73L19.81,214.06L19.99,214.06L20.16,227.4L20.52,214.06L20.69,207.39L21.74,224.07L21.92,254.09L22.62,210.72L22.8,220.73L22.97,227.4L23.15,230.74L23.32,217.4L23.5,200.72L24.02,214.06L24.2,207.39L24.55,220.73L24.72,217.4L24.9,197.38L25.07,170.69L25.6,194.04L25.78,187.37L26.3,200.72L26.48,184.04L26.83,194.04L27.35,170.69L27.53,187.37L28.06,190.71L28.23,210.72L28.76,217.4L28.93,204.05L29.11,220.73L29.46,224.07L31.74,174.03L31.91,154.01L32.09,154.01L32.26,157.35L32.61,150.68L32.79,160.68L32.97,170.69L33.14,167.36L33.32,180.7L33.67,160.68L34.02,174.03L34.19,190.71L35.07,214.06L35.24,200.72L35.77,210.72L35.95,200.72L36.12,204.05L36.3,200.72L36.47,207.39L36.65,204.05L36.82,207.39L37.17,214.06L37.35,197.38L37.52,210.72L38.58,187.37L38.75,194.04L39.45,174.03L39.63,180.7L39.8,184.04L40.86,224.07L41.03,224.07L41.38,234.08L41.56,220.73L42.08,227.4L42.26,210.72L42.43,224.07L42.78,227.4L43.31,210.72L43.49,200.72L44.19,217.4L44.36,210.72L44.54,214.06L44.71,217.4L44.89,200.72L45.24,197.38L45.41,207.39L45.94,190.71L46.12,174.03L46.29,174.03L46.47,177.36L46.64,194.04L47.17,187.37L47.34,180.7L47.52,200.72L47.87,177.36L48.05,177.36L48.22,137.33L49.1,180.7L49.27,177.36L49.62,177.36L49.8,190.71L49.97,190.71L50.15,174.03L50.32,164.02L50.5,184.04L50.68,190.71L52.08,207.39L52.25,200.72L52.43,220.73L52.95,207.39L53.13,207.39L53.48,207.39L53.66,200.72L53.83,217.4L54.36,207.39L54.53,210.72L54.88,200.72L55.23,210.72L55.41,207.39L55.59,207.39L55.76,210.72L56.29,184.04L56.46,210.72L56.64,210.72L57.51,224.07L57.69,220.73L57.86,224.07L58.22,217.4L58.39,217.4L58.57,217.4L58.74,220.73L59.09,217.4L59.27,220.73L59.44,194.04L60.49,120.65L60.67,157.35L61.02,187.37L61.55,174.03L61.72,180.7L62.42,200.72L62.6,214.06L62.77,217.4L62.95,194.04L63.13,184.04L63.3,200.72L63.48,220.73L64,207.39L64.18,190.71L64.35,194.04L64.53,180.7L65.4,137.33L65.58,160.68L65.76,164.02L66.11,160.68L66.28,177.36L66.46,160.68L66.63,187.37L66.81,187.37L66.98,190.71L67.51,157.35L67.68,184.04L67.86,190.71L68.03,187.37L68.21,194.04L68.39,190.71L68.56,197.38L68.74,207.39L69.09,197.38L69.26,187.37L69.79,207.39L70.31,204.05L70.49,204.05L70.84,214.06L71.02,200.72L71.19,200.72L71.37,200.72L71.54,197.38L71.72,194.04L71.89,210.72L72.24,220.73L72.59,210.72L72.77,210.72L72.94,210.72L73.12,207.39L73.82,224.07L74.17,217.4L74.35,214.06L75.05,227.4L75.22,220.73L75.4,217.4L76.1,224.07L76.28,220.73L77.15,227.4L77.33,210.72L78.03,140.67L78.2,157.35L78.38,187.37L78.91,184.04L79.08,190.71L79.61,174.03L79.78,177.36L79.96,187.37L80.13,187.37L80.31,184.04L80.84,154.01L81.19,164.02L81.36,167.36L81.54,180.7L82.06,167.36L82.24,174.03L82.59,134L82.94,170.69L83.11,170.69L83.29,180.7L83.47,174.03L83.64,154.01L84.52,177.36L84.69,167.36L85.74,194.04L85.92,190.71L86.27,204.05L86.45,197.38L86.62,194.04L86.8,190.71L86.97,200.72L87.15,197.38L87.32,197.38L88.2,210.72L88.38,197.38L89.25,214.06L89.43,210.72L89.78,214.06L90.13,197.38L90.3,210.72L90.48,204.05L91.01,210.72L91.18,207.39L91.71,220.73L92.06,214.06L92.23,214.06L92.41,220.73L92.58,217.4L92.76,194.04L93.28,147.34L93.46,167.36L93.64,184.04L94.34,194.04L94.51,190.71L94.69,187.37L94.86,190.71L95.39,187.37L95.56,180.7L95.91,164.02L96.09,184.04L96.27,207.39L97.14,180.7L97.32,197.38L97.49,200.72L97.67,187.37L98.02,170.69L98.19,190.71L98.37,187.37L98.72,190.71L98.9,180.7L99.07,140.67L99.6,160.68L99.77,164.02L100.82,150.68L101,157.35L102.05,194.04L102.23,180.7L103.1,210.72L103.28,207.39L103.45,204.05L103.98,194.04L104.16,200.72L104.33,197.38L104.51,214.06L105.03,197.38L105.21,200.72L105.56,214.06L105.91,204.05L106.09,207.39L106.26,204.05L106.44,214.06L106.61,220.73L106.96,194.04L107.14,217.4L108.36,204.05L108.54,214.06L108.72,230.74L109.24,220.73L109.42,214.06L109.59,217.4L109.77,194.04L109.94,184.04L110.47,194.04L110.64,200.72L110.99,190.71L111.17,204.05L112.05,187.37L112.22,200.72L112.57,194.04L113.27,220.73L113.63,217.4L113.8,210.72L115.03,170.69L115.38,177.36L115.55,197.38L116.08,144L116.26,180.7L116.61,174.03L116.78,177.36L116.96,184.04L117.13,184.04L117.31,174.03L117.66,184.04L117.83,140.67L118.53,197.38L118.71,184.04L118.89,204.05L119.24,187.37L119.41,197.38L119.59,217.4L119.94,187.37L120.29,200.72L120.46,200.72L120.64,200.72L120.81,194.04L121.34,207.39L121.69,204.05L121.87,200.72L123.09,230.74L123.27,217.4L123.44,214.06L123.62,220.73L123.8,200.72L123.97,217.4L124.32,184.04L124.5,177.36L124.85,157.35L125.02,177.36L125.2,204.05L125.72,220.73L125.9,214.06L126.07,207.39L126.43,217.4L126.6,210.72L126.78,190.71L126.95,190.71L127.13,157.35L127.3,157.35L127.48,154.01L128,174.03L128.18,164.02L128.35,150.68L129.06,194.04L129.23,190.71L129.41,194.04L130.46,207.39L130.63,204.05L130.81,197.38L131.16,180.7L131.51,190.71L131.69,194.04L132.21,154.01L132.39,190.71L133.44,200.72L133.61,194.04L133.79,190.71L133.97,204.05L134.32,204.05L134.49,200.72L135.02,220.73L135.19,207.39L135.89,217.4L136.07,214.06L136.24,214.06L136.77,207.39L137.12,210.72L137.3,217.4L137.47,227.4L138,217.4L138.17,220.73L138.88,210.72L139.05,224.07L139.23,217.4L139.58,230.74L139.75,227.4L140.1,227.4L140.28,220.73L141.15,207.39L141.33,217.4L141.51,210.72L141.86,224.07L142.03,224.07L142.21,224.07L142.38,230.74L142.56,230.74L142.73,227.4L142.91,220.73L143.26,227.4L143.43,230.74L144.66,194.04L144.84,197.38L145.54,187.37L145.71,190.71L145.89,194.04L146.06,184.04L146.24,190.71L146.41,187.37L146.94,214.06L147.12,207.39L147.29,200.72L147.64,210.72L147.99,204.05L148.17,200.72L148.34,204.05L148.52,174.03L148.69,170.69L148.87,190.71L149.57,204.05L149.75,174.03L150.1,177.36L150.27,160.68L150.45,170.69L150.62,177.36L151.32,164.02L151.5,167.36L151.68,177.36L152.03,190.71L152.2,184.04L152.38,180.7L153.08,207.39L153.25,204.05L153.43,197.38L153.95,210.72L154.31,207.39L154.48,207.39L154.66,204.05L154.83,214.06L155.01,217.4L155.53,180.7L155.71,204.05L155.88,207.39L156.76,220.73L156.94,214.06L157.81,234.08L157.99,230.74L158.86,217.4L159.04,224.07L159.22,224.07L159.39,204.05L159.92,224.07L160.27,220.73L160.44,214.06L160.97,194.04L161.14,197.38L161.32,207.39L162.2,177.36L162.37,194.04L162.55,194.04L163.07,184.04L163.25,204.05L163.42,220.73L163.95,204.05L164.13,207.39L164.3,214.06L164.48,210.72L164.65,187.37L165.35,204.05L165.53,197.38L165.7,194.04L165.88,200.72L166.05,190.71L166.23,180.7L166.4,180.7L166.58,184.04L167.11,150.68L167.46,160.68L167.63,160.68L167.81,154.01L167.98,167.36L168.16,167.36L168.33,167.36L168.51,167.36L168.68,184.04L168.86,177.36L169.21,187.37L169.39,187.37L170.09,207.39L170.26,204.05L170.44,197.38L171.31,210.72L171.49,200.72L172.37,210.72L172.54,197.38L172.72,187.37L172.89,214.06L173.07,200.72L173.24,214.06L173.42,224.07L173.59,210.72L173.94,217.4L174.12,214.06L174.47,224.07L175,187.37L175.17,214.06L175.52,214.06L175.7,220.73L175.87,220.73L176.05,217.4L176.75,204.05L176.93,210.72L177.1,207.39L177.28,207.39L177.45,194.04L177.63,184.04L178.15,190.71L178.33,190.71L178.85,180.7L179.03,190.71L179.2,194.04L179.38,197.38L179.56,190.71L179.73,190.71L179.91,190.71L180.08,187.37L180.26,190.71L180.43,207.39L180.96,187.37L181.13,190.71L181.31,210.72L182.36,167.36L182.54,187.37L182.71,187.37L182.89,184.04L183.76,174.03L183.94,180.7L184.11,180.7L184.29,174.03L184.47,180.7L184.99,174.03L185.17,177.36L186.04,207.39L186.22,194.04L186.39,177.36L186.74,200.72L186.92,200.72L187.27,197.38L188.15,220.73L188.32,207.39L188.5,207.39L188.67,217.4L189.2,200.72L189.55,207.39L189.73,210.72L190.08,200.72L190.25,217.4L190.43,210.72L190.6,220.73L190.78,224.07L190.95,210.72L191.13,210.72L191.3,220.73L191.48,197.38L192.01,217.4L192.18,217.4L192.88,224.07L193.06,187.37L193.23,184.04L193.41,214.06L193.76,207.39L193.93,217.4L194.11,197.38L194.28,190.71L194.46,204.05L194.64,210.72L194.81,214.06L194.99,204.05L195.16,184.04L195.51,194.04L195.69,167.36L196.21,184.04L196.39,177.36L196.56,177.36L197.09,194.04L197.27,180.7L197.44,174.03L197.62,184.04L198.14,180.7L198.32,180.7L198.49,180.7L198.67,174.03L198.84,194.04L199.37,190.71L199.55,187.37L200.07,174.03L200.25,187.37L200.6,197.38L200.77,190.71L200.95,167.36L201.3,170.69L201.47,160.68L201.65,160.68L201.82,150.68L203.4,194.04L203.58,187.37L203.93,184.04L204.63,197.38L204.81,194.04L204.98,204.05L205.16,190.71L205.33,190.71L205.51,190.71L206.21,200.72L206.38,197.38L206.56,194.04L207.26,224.07L207.44,204.05L207.79,210.72L207.96,187.37L208.49,224.07L208.84,214.06L209.01,214.06L209.19,214.06L209.36,217.4L209.72,217.4L209.89,207.39L210.07,217.4L210.24,204.05L210.59,210.72L210.77,200.72L211.29,177.36L211.64,180.7L211.82,190.71L211.99,197.38L212.35,184.04L212.52,184.04L212.7,190.71L213.22,187.37L213.4,187.37L213.57,177.36L213.75,197.38L213.92,207.39L214.27,220.73L214.63,210.72L214.8,210.72L214.98,214.06L215.15,210.72L215.33,204.05L215.5,207.39L215.68,204.05L215.85,197.38L216.03,180.7L216.2,200.72L216.38,200.72L216.55,204.05L216.9,204.05L217.08,207.39L217.26,207.39L217.43,194.04L217.61,204.05L217.78,180.7L217.96,167.36L218.13,167.36L218.31,174.03L218.83,147.34L219.01,164.02L219.89,184.04L220.06,184.04L220.24,184.04L220.41,214.06L220.76,200.72L220.94,204.05L221.11,217.4L221.29,217.4L221.46,197.38L222.16,210.72L222.34,207.39L222.52,204.05L223.39,227.4L223.57,224.07L223.74,197.38L223.92,184.04L224.09,210.72L224.27,217.4L224.8,210.72L224.97,217.4L225.15,217.4L225.32,220.73L225.5,214.06L225.67,207.39L226.02,220.73L226.37,214.06L226.55,214.06L226.9,217.4L227.07,207.39L227.43,224.07L227.6,217.4L227.78,194.04L228.3,174.03L228.48,190.71L228.65,197.38L229.35,180.7L229.53,187.37L229.7,190.71L230.06,184.04L230.23,197.38L230.41,184.04L230.58,200.72L230.76,200.72L230.93,207.39L231.11,220.73L231.46,204.05L231.63,210.72L231.81,210.72L231.98,214.06L232.16,177.36L232.69,157.35L232.86,160.68L233.04,174.03L234.09,200.72L234.26,194.04L234.61,187.37L234.79,197.38L234.97,190.71L235.14,190.71L235.67,180.7L236.02,210.72L236.19,200.72L236.54,187.37L236.89,190.71L237.07,207.39L237.6,194.04L237.77,197.38L237.95,200.72L239,214.06L239.17,207.39L239.7,210.72L239.88,204.05L240.05,214.06L240.4,227.4L240.75,220.73L240.93,214.06L241.1,214.06L241.28,207.39L241.63,230.74L241.8,224.07L241.98,184.04L242.15,180.7L242.33,207.39L242.51,200.72L242.68,210.72L242.86,217.4L243.73,230.74L243.91,227.4L244.08,230.74L244.26,200.72L244.61,204.05L244.78,194.04L245.14,200.72L245.31,177.36L245.49,180.7L245.66,207.39L246.01,204.05L246.19,164.02L246.54,204.05L246.89,160.68L247.06,157.35L247.77,220.73L247.94,217.4L248.12,210.72L248.29,210.72L248.47,207.39L248.99,214.06L249.17,210.72L249.34,207.39L249.69,200.72L249.87,204.05L250.05,210.72L251.1,150.68L251.45,154.01L251.62,157.35L251.97,160.68L252.15,154.01L252.32,157.35L252.5,157.35L253.55,197.38L253.73,194.04L254.6,207.39L254.78,210.72L255.48,204.05L255.66,217.4L256.01,204.05L256.36,217.4L256.53,214.06L256.71,210.72L256.88,217.4L257.06,227.4L257.23,227.4L257.41,224.07L257.59,220.73L257.76,234.08L259.16,204.05L259.34,204.05L259.86,224.07L260.22,220.73L260.39,217.4L260.74,217.4L260.92,190.71L261.09,197.38L261.44,184.04L261.62,184.04L262.14,204.05L262.49,197.38L262.67,197.38L262.85,194.04L263.02,167.36L264.07,210.72L264.25,207.39L264.42,204.05L264.77,207.39L264.95,197.38L265.3,177.36L265.48,210.72L265.65,210.72L265.83,197.38L266.18,204.05L266.7,184.04L266.88,160.68L267.05,157.35L267.23,204.05L267.93,167.36L268.11,187.37L268.28,207.39L269.16,180.7L269.33,184.04L269.51,200.72L269.68,180.7L270.21,194.04L270.39,204.05L270.91,200.72L271.09,210.72L271.26,207.39L271.44,207.39L271.61,220.73L272.14,207.39L272.31,214.06L272.84,207.39L273.19,210.72L273.37,217.4L273.72,194.04L274.07,204.05L274.24,210.72L274.59,217.4L274.77,184.04L274.94,207.39L276.17,227.4L276.35,224.07L276.52,220.73L276.7,227.4L277.05,220.73L277.22,217.4L277.4,220.73L277.57,210.72L277.75,197.38L277.93,197.38L278.1,214.06L279.15,187.37L279.33,190.71L279.68,200.72L279.85,170.69L280.2,170.69L280.38,187.37L280.73,160.68L281.08,180.7L281.26,204.05L282.13,227.4L282.31,224.07L282.48,224.07L282.66,207.39L283.01,214.06L283.19,180.7L283.36,167.36L283.71,207.39L284.24,200.72L284.41,177.36L284.94,160.68L285.11,167.36L285.29,177.36L285.64,160.68L285.99,167.36L286.17,170.69L286.34,147.34L286.87,164.02L287.04,190.71L287.22,187.37L287.39,194.04L287.57,190.71L287.74,197.38L288.1,204.05L288.45,190.71L288.62,200.72L288.8,204.05L288.97,200.72L289.15,190.71L290.2,210.72L290.38,207.39L290.9,204.05L291.08,210.72L291.43,204.05L291.6,217.4L291.78,214.06L292.13,194.04L292.48,210.72L292.65,214.06L293.01,214.06L293.18,220.73L294.06,207.39L294.23,210.72L294.41,224.07L294.76,217.4L294.93,227.4L295.11,227.4L295.28,224.07L295.46,227.4L295.64,204.05L296.69,187.37L296.86,160.68L297.39,204.05L297.56,194.04L297.74,184.04L298.09,197.38L298.44,190.71L298.62,190.71L298.79,190.71L298.97,184.04L299.49,204.05L299.67,197.38L299.84,174.03L300.02,187.37L300.19,170.69L300.55,180.7L300.72,177.36L301.25,180.7L301.6,130.66L301.77,140.67L301.95,180.7L302.3,174.03L302.47,187.37L302.65,177.36L303.18,190.71L303.35,134L304.4,194.04L304.58,204.05L304.75,194.04L305.28,197.38L305.45,200.72L305.63,200.72L305.81,217.4L306.86,190.71L307.03,207.39L307.21,207.39L307.38,210.72L307.73,224.07L308.09,220.73L308.26,217.4L308.61,220.73L308.79,194.04L309.49,224.07L309.84,220.73L310.01,217.4L310.89,220.73L311.07,220.73L311.24,224.07L311.42,220.73L311.59,214.06L311.77,210.72L311.94,230.74L312.99,210.72L313.17,217.4L313.52,184.04L314.05,187.37L314.22,187.37L315.1,204.05L315.27,200.72L315.45,200.72L315.63,200.72L315.8,190.71L316.68,157.35L316.85,167.36L318.08,190.71L318.26,187.37L318.61,180.7L319.13,184.04L319.31,197.38L319.83,174.03L320.18,180.7L320.36,187.37L321.41,207.39L321.59,204.05L321.94,197.38L322.46,210.72L322.64,200.72L322.81,197.38L322.99,207.39L323.16,210.72L323.52,210.72L323.69,207.39L323.87,204.05L324.22,210.72L324.39,220.73L324.74,190.71L324.92,217.4L325.09,217.4L325.27,197.38L325.44,194.04L325.8,200.72L325.97,214.06L326.85,224.07L327.02,214.06L327.2,214.06L327.37,224.07L327.55,224.07L327.72,207.39L327.9,224.07L328.07,214.06L328.25,184.04L328.43,180.7L328.6,217.4L329.48,190.71L329.65,197.38L330,194.04L330.18,200.72L330.35,197.38L330.53,197.38L331.41,184.04L331.58,194.04L331.76,200.72L331.93,190.71L332.11,160.68L332.28,164.02L332.46,147.34L333.16,194.04L333.51,184.04L333.69,180.7L334.04,177.36L334.56,204.05L334.74,187.37L334.91,187.37L335.09,177.36L335.26,177.36L335.44,180.7L335.79,177.36L336.14,180.7L336.32,184.04L336.67,164.02L336.84,180.7L337.37,194.04L337.54,187.37L337.72,187.37L338.77,217.4L338.95,204.05L339.12,200.72L339.3,204.05L339.47,230.74L340.52,204.05L340.7,200.72L340.88,210.72L341.05,197.38L341.23,174.03L341.75,227.4L342.1,197.38L342.28,207.39L342.63,207.39L342.8,220.73L343.15,234.08L343.33,220.73L344.03,204.05L344.21,207.39L344.38,220.73L345.08,220.73L345.26,214.06L345.96,204.05L346.14,170.69L346.84,194.04L347.01,184.04L347.19,167.36L347.36,194.04L347.54,190.71L347.71,190.71L348.06,190.71L348.24,187.37L348.59,200.72L348.77,194.04L348.94,180.7L349.29,214.06L349.64,207.39L349.82,200.72L349.99,204.05L350.17,200.72L350.34,194.04L350.52,190.71L350.69,170.69L350.87,174.03L351.05,200.72L351.75,180.7L351.92,164.02L352.45,184.04L352.62,200.72L353.5,177.36L353.68,180.7L353.85,187.37L354.2,204.05L354.55,190.71L354.73,187.37L355.78,210.72L355.95,207.39L356.13,197.38L356.66,204.05L356.83,204.05L357.01,210.72L357.18,200.72L357.53,207.39L357.71,207.39L358.23,230.74L358.59,224.07L358.76,217.4L359.11,220.73L359.29,197.38L359.64,220.73L360.16,207.39L360.34,207.39L360.51,197.38L360.86,217.4L361.04,217.4L361.22,220.73L361.39,217.4L361.57,187.37L362.27,160.68L362.44,150.68L362.97,194.04L363.49,190.71L363.67,170.69L363.85,167.36L364.02,180.7L364.37,170.69L364.72,190.71L364.9,160.68L365.95,227.4L366.13,220.73L367,224.07L367.18,217.4L367.35,217.4L367.53,220.73L368.05,207.39L368.23,154.01L368.4,167.36L368.76,147.34L368.93,164.02L369.11,140.67L369.28,127.32L369.46,177.36L370.33,184.04L370.51,187.37L371.91,217.4L372.09,217.4L372.44,194.04L372.61,197.38L372.79,220.73L372.96,207.39L373.49,224.07L373.66,217.4L374.02,220.73L374.37,210.72L374.54,214.06L374.72,220.73L375.42,227.4L375.59,220.73L376.12,237.41L376.3,224.07L376.47,224.07L376.65,227.4L377,200.72L377.35,214.06L377.52,214.06L377.87,224.07L378.05,207.39L378.22,177.36L378.4,180.7L378.57,227.4L378.75,227.4L378.93,220.73L379.45,230.74L379.63,214.06L380.5,147.34L380.68,164.02L381.56,210.72L381.73,200.72L381.91,197.38L382.08,204.05L382.26,207.39L383.13,184.04L383.31,184.04L383.84,197.38L384.01,214.06L384.89,164.02L385.06,170.69L385.24,204.05L385.41,204.05L385.59,200.72L386.47,210.72L386.64,210.72L387.52,214.06L387.69,210.72L387.87,210.72L388.04,214.06L388.39,220.73L388.57,214.06L388.74,210.72L388.92,210.72L389.1,217.4L389.45,207.39L389.8,217.4L389.97,220.73L390.5,210.72L390.67,220.73L391.55,210.72L391.73,214.06L391.9,224.07L392.08,210.72L392.43,214.06L392.6,217.4L392.78,227.4L393.13,224.07L393.3,214.06L393.65,220.73L393.83,217.4L394.01,204.05L394.36,224.07L394.71,214.06L394.88,210.72L395.06,207.39L395.23,224.07L395.41,200.72L395.93,227.4L396.11,214.06L396.28,210.72L396.46,217.4L396.64,220.73L396.99,204.05L397.16,207.39L397.34,214.06L397.69,207.39L398.21,220.73L398.39,217.4L398.56,207.39L399.09,214.06L399.27,214.06L399.97,207.39L400.14,217.4L400.32,214.06L400.49,174.03L401.02,194.04L401.19,190.71L401.37,180.7L401.55,180.7L401.72,184.04L402.6,167.36L402.77,174.03L402.95,164.02L403.12,197.38L403.65,177.36L403.82,167.36L404,160.68L404.18,164.02L404.35,180.7L404.53,177.36L404.7,190.71L405.05,174.03L405.58,177.36L405.75,180.7L406.1,200.72L406.63,194.04L406.81,197.38L407.16,184.04L407.51,200.72L407.68,194.04L407.86,184.04L408.03,204.05L408.21,207.39L408.38,204.05L408.56,214.06L408.73,224.07L408.91,227.4L409.09,220.73L409.26,217.4L409.44,227.4L409.79,214.06L409.96,214.06L410.31,234.08L410.84,224.07L411.01,220.73L411.36,214.06L411.54,230.74L412.07,210.72L412.42,220.73L412.59,224.07L413.12,187.37L413.29,190.71L413.47,217.4L413.64,214.06L413.82,190.71L414.7,204.05L414.87,200.72L415.57,194.04L415.75,197.38L415.92,197.38L416.1,204.05L416.98,190.71L417.33,194.04L417.5,214.06L418.38,170.69L418.55,177.36L418.73,184.04L419.08,194.04L419.26,174.03L419.43,180.7L419.61,160.68L419.78,144L420.66,187.37L421.01,184.04L421.18,190.71L421.53,164.02L421.71,194.04L422.06,204.05L422.59,200.72L422.76,200.72L422.94,194.04L423.11,204.05L423.29,197.38L423.46,207.39L423.64,207.39L423.81,204.05L425.57,230.74L425.74,217.4L426.8,167.36L426.97,217.4L427.32,217.4L427.5,197.38L428.37,214.06L428.55,220.73L430.13,170.69L430.3,180.7L430.48,190.71L430.65,177.36L430.83,150.68L431,144L431.18,170.69L431.88,200.72L432.06,197.38L432.23,187.37L432.93,200.72L433.46,197.38L433.63,194.04L434.16,170.69L434.34,160.68L435.04,134L435.21,137.33L435.39,174.03L435.91,184.04L436.09,180.7L436.26,174.03L436.44,177.36L436.61,147.34L437.49,180.7L437.67,157.35L438.37,190.71L438.54,177.36L438.72,157.35L439.6,190.71L439.77,180.7L440.3,194.04L440.47,187.37L440.65,180.7L441,197.38L441.17,184.04L441.7,194.04L441.88,187.37L442.05,187.37L442.75,220.73L442.93,214.06L443.1,197.38L443.28,207.39L443.45,170.69L443.63,170.69L443.8,214.06L444.15,174.03L444.68,187.37L444.86,177.36L446.26,230.74L446.43,224.07L446.78,234.08L447.31,230.74L447.49,227.4L447.66,234.08L448.01,220.73L448.19,220.73L448.36,220.73L448.54,200.72L448.71,184.04L449.06,207.39L449.24,207.39L449.94,160.68L450.12,187.37L450.29,184.04L450.47,184.04L450.64,180.7L450.82,167.36L451.17,180.7L451.34,187.37L452.22,157.35L452.4,170.69L452.57,170.69L452.75,184.04L452.92,180.7L453.1,190.71L453.27,147.34L453.8,204.05L454.32,187.37L454.5,194.04L454.85,174.03L455.2,194.04L455.38,210.72L455.55,187.37L456.08,207.39L456.25,207.39L456.6,197.38L456.78,214.06L456.95,207.39L457.13,200.72L457.48,217.4L457.83,214.06L458.01,200.72L458.18,217.4L458.71,210.72L458.88,204.05L459.76,227.4L459.94,227.4L460.29,190.71L460.64,214.06L460.81,220.73L461.34,210.72L461.51,190.71L462.39,227.4L462.57,230.74L463.62,194.04L463.79,194.04L463.97,174.03L464.49,184.04L464.67,190.71L465.9,140.67L466.07,174.03L466.25,170.69L466.42,184.04L466.77,160.68L467.13,170.69L467.3,170.69L468,184.04L468.18,177.36L468.35,180.7L468.53,174.03L468.7,164.02L469.05,187.37L469.23,147.34L469.4,174.03L469.58,180.7L469.93,227.4L470.11,160.68L470.28,184.04L470.46,184.04L470.63,180.7L470.81,160.68L470.98,157.35L471.16,187.37L471.68,187.37L471.86,190.71L472.03,200.72L472.56,197.38L472.74,187.37L473.09,150.68L473.26,170.69L473.44,200.72L473.61,200.72L473.79,197.38L473.96,200.72L474.14,220.73L474.31,200.72L474.84,217.4L475.02,207.39L475.37,197.38L475.54,200.72L475.72,214.06L475.89,210.72L476.07,224.07L476.24,224.07L476.42,217.4L476.59,227.4L476.77,214.06L476.94,214.06L477.12,214.06L477.3,207.39L477.47,217.4L477.65,214.06L477.82,170.69L478.35,220.73L478.7,204.05L478.87,224.07L479.05,224.07L479.22,237.41L480.28,187.37L480.45,194.04L481.68,174.03L481.85,184.04L482.38,190.71L482.91,154.01L483.08,164.02L483.26,167.36L484.13,217.4L484.31,217.4L484.48,220.73L484.66,217.4L484.84,194.04L485.01,187.37L485.19,190.71L485.36,207.39L486.41,190.71L486.59,197.38L486.76,204.05L487.11,194.04L487.29,190.71L487.47,174.03L487.64,200.72L487.82,197.38L487.99,197.38L488.17,197.38L488.34,194.04L488.69,194.04L488.87,200.72L489.22,197.38L489.92,217.4L490.1,207.39L490.45,207.39L490.62,210.72L491.32,197.38L491.5,217.4L492.02,207.39L492.2,220.73L492.55,207.39L492.73,214.06L492.9,224.07L493.6,224.07L493.78,227.4L494.13,237.41L494.3,234.08L494.48,217.4L494.65,177.36L495.18,220.73L495.36,214.06L495.53,214.06L495.71,230.74L496.41,224.07L496.58,230.74L497.81,190.71L497.99,204.05L498.86,190.71L499.04,194.04L499.21,194.04L499.56,184.04L499.91,217.4L500.27,210.72L500.44,200.72L500.79,214.06L500.97,194.04L501.14,197.38L501.49,207.39L501.67,204.05L501.84,184.04L502.19,210.72L502.72,207.39L502.9,197.38L503.6,167.36L503.77,187.37L504.47,214.06L504.65,207.39L504.82,184.04L505,207.39" style="vector-effect: non-scaling-stroke; fill: none; stroke: rgb(99, 110, 250); stroke-opacity: 1; stroke-width: 2px; opacity: 1;"/></g><g class="points"/><g class="text"/></g></g></g><g class="overplot"/><path class="xlines-above crisp" d="M0,0" style="fill: none;"/><path class="ylines-above crisp" d="M0,0" style="fill: none;"/><g class="overlines-above"/><g class="xaxislayer-above"><g class="xtick"><text text-anchor="middle" x="0" y="351" transform="translate(67.01,0)" style="font-family: 'Open Sans', verdana, arial, sans-serif; font-size: 12px; fill: rgb(42, 63, 95); fill-opacity: 1; white-space: pre; opacity: 1;"><tspan class="line" dy="0em" x="0" y="351">Dec 3</tspan><tspan class="line" dy="1.3em" x="0" y="351">2017</tspan></text></g><g class="xtick"><text text-anchor="middle" x="0" y="351" style="font-family: 'Open Sans', verdana, arial, sans-serif; font-size: 12px; fill: rgb(42, 63, 95); fill-opacity: 1; white-space: pre; opacity: 1;" transform="translate(184.84,0)">Dec 10</text></g><g class="xtick"><text text-anchor="middle" x="0" y="351" style="font-family: 'Open Sans', verdana, arial, sans-serif; font-size: 12px; fill: rgb(42, 63, 95); fill-opacity: 1; white-space: pre; opacity: 1;" transform="translate(302.68,0)">Dec 17</text></g><g class="xtick"><text text-anchor="middle" x="0" y="351" style="font-family: 'Open Sans', verdana, arial, sans-serif; font-size: 12px; fill: rgb(42, 63, 95); fill-opacity: 1; white-space: pre; opacity: 1;" transform="translate(420.51,0)">Dec 24</text></g><g class="xtick"><text text-anchor="middle" x="0" y="351" style="font-family: 'Open Sans', verdana, arial, sans-serif; font-size: 12px; fill: rgb(42, 63, 95); fill-opacity: 1; white-space: pre; opacity: 1;" transform="translate(538.3399999999999,0)">Dec 31</text></g></g><g class="yaxislayer-above"><g class="ytick"><text text-anchor="end" x="49" y="4.199999999999999" transform="translate(0,327.44)" style="font-family: 'Open Sans', verdana, arial, sans-serif; font-size: 12px; fill: rgb(42, 63, 95); fill-opacity: 1; white-space: pre; opacity: 1;">0</text></g><g class="ytick"><text text-anchor="end" x="49" y="4.199999999999999" style="font-family: 'Open Sans', verdana, arial, sans-serif; font-size: 12px; fill: rgb(42, 63, 95); fill-opacity: 1; white-space: pre; opacity: 1;" transform="translate(0,285.74)">2</text></g><g class="ytick"><text text-anchor="end" x="49" y="4.199999999999999" style="font-family: 'Open Sans', verdana, arial, sans-serif; font-size: 12px; fill: rgb(42, 63, 95); fill-opacity: 1; white-space: pre; opacity: 1;" transform="translate(0,244.04)">4</text></g><g class="ytick"><text text-anchor="end" x="49" y="4.199999999999999" style="font-family: 'Open Sans', verdana, arial, sans-serif; font-size: 12px; fill: rgb(42, 63, 95); fill-opacity: 1; white-space: pre; opacity: 1;" transform="translate(0,202.34)">6</text></g><g class="ytick"><text text-anchor="end" x="49" y="4.199999999999999" style="font-family: 'Open Sans', verdana, arial, sans-serif; font-size: 12px; fill: rgb(42, 63, 95); fill-opacity: 1; white-space: pre; opacity: 1;" transform="translate(0,160.64)">8</text></g><g class="ytick"><text text-anchor="end" x="49" y="4.199999999999999" style="font-family: 'Open Sans', verdana, arial, sans-serif; font-size: 12px; fill: rgb(42, 63, 95); fill-opacity: 1; white-space: pre; opacity: 1;" transform="translate(0,118.94)">10</text></g><g class="ytick"><text text-anchor="end" x="49" y="4.199999999999999" style="font-family: 'Open Sans', verdana, arial, sans-serif; font-size: 12px; fill: rgb(42, 63, 95); fill-opacity: 1; white-space: pre; opacity: 1;" transform="translate(0,77.24)">12</text></g></g><g class="overaxes-above"/></g></g><g class="polarlayer"/><g class="ternarylayer"/><g class="geolayer"/><g class="funnelarealayer"/><g class="pielayer"/><g class="iciclelayer"/><g class="treemaplayer"/><g class="sunburstlayer"/><g class="glimages"/><defs id="topdefs-b37101"><g class="clips"/><clipPath id="rangesliderx-b37101"><rect x="0" y="0" width="505" height="57.15"/></clipPath></defs><g class="layer-above"><g class="imagelayer"/><g class="shapelayer"/></g><g class="infolayer"><g class="rangeselector" transform="translate(50,33)" style="cursor: pointer; pointer-events: all;"><g class="button" transform=""><rect class="selector-rect" shape-rendering="crispEdges" rx="3" ry="3" x="0" y="0" width="30" height="19" style="stroke: rgb(68, 68, 68); stroke-opacity: 1; fill: rgb(238, 238, 238); fill-opacity: 1; stroke-width: 0px;"/><text class="selector-text" text-anchor="middle" x="15" y="12.5" style="font-family: 'Open Sans', verdana, arial, sans-serif; font-size: 12px; fill: rgb(42, 63, 95); fill-opacity: 1; white-space: pre;">1d</text></g><g class="button" transform="translate(35,0)"><rect class="selector-rect" shape-rendering="crispEdges" rx="3" ry="3" x="0" y="0" width="30" height="19" style="stroke: rgb(68, 68, 68); stroke-opacity: 1; fill: rgb(212, 212, 212); fill-opacity: 1; stroke-width: 0px;"/><text class="selector-text" text-anchor="middle" x="15" y="12.5" style="font-family: 'Open Sans', verdana, arial, sans-serif; font-size: 12px; fill: rgb(42, 63, 95); fill-opacity: 1; white-space: pre;">1w</text></g><g class="button" transform="translate(70,0)"><rect class="selector-rect" shape-rendering="crispEdges" rx="3" ry="3" x="0" y="0" width="30" height="19" style="stroke: rgb(68, 68, 68); stroke-opacity: 1; fill: rgb(212, 212, 212); fill-opacity: 1; stroke-width: 0px;"/><text class="selector-text" text-anchor="middle" x="15" y="12.5" style="font-family: 'Open Sans', verdana, arial, sans-serif; font-size: 12px; fill: rgb(42, 63, 95); fill-opacity: 1; white-space: pre;">1m</text></g><g class="button" transform="translate(105,0)"><rect class="selector-rect" shape-rendering="crispEdges" rx="3" ry="3" x="0" y="0" width="30" height="19" style="stroke: rgb(68, 68, 68); stroke-opacity: 1; fill: rgb(238, 238, 238); fill-opacity: 1; stroke-width: 0px;"/><text class="selector-text" text-anchor="middle" x="15" y="12.5" style="font-family: 'Open Sans', verdana, arial, sans-serif; font-size: 12px; fill: rgb(42, 63, 95); fill-opacity: 1; white-space: pre;">6m</text></g><g class="button" transform="translate(140,0)"><rect class="selector-rect" shape-rendering="crispEdges" rx="3" ry="3" x="0" y="0" width="30" height="19" style="stroke: rgb(68, 68, 68); stroke-opacity: 1; fill: rgb(238, 238, 238); fill-opacity: 1; stroke-width: 0px;"/><text class="selector-text" text-anchor="middle" x="15" y="12.5" style="font-family: 'Open Sans', verdana, arial, sans-serif; font-size: 12px; fill: rgb(42, 63, 95); fill-opacity: 1; white-space: pre;">1y</text></g></g><g class="g-gtitle"><text class="gtitle" x="30.25" y="30" text-anchor="start" dy="0em" style="font-family: 'Open Sans', verdana, arial, sans-serif; font-size: 17px; fill: rgb(42, 63, 95); opacity: 1; font-weight: normal; white-space: pre;">Active Power Demand for user 1358568</text></g><g class="rangeslider-container" pointer-events="all" transform="translate(50,384)"><rect class="rangeslider-bg" x="0" y="0" shape-rendering="crispEdges" width="505" height="57.15" transform="" fill="#E5ECF6" stroke="#444" stroke-width="0"/><g class="rangeslider-rangeplot xy" clip-path="url(#rangesliderx-b37101)"><g class="layer-subplot"><g class="shapelayer"/><g class="imagelayer"/></g><g class="gridlayer"><g class="x"/><g class="y"/></g><g class="zerolinelayer"/><path class="xlines-below"/><path class="ylines-below"/><g class="overlines-below"/><g class="xaxislayer-below"/><g class="yaxislayer-below"/><g class="overaxes-below"/><g class="plot"><g class="scatterlayer mlayer rangeplot"><g class="trace scatter traceb0e36b" style="stroke-miterlimit: 2; opacity: 1;"><g class="fills"/><g class="errorbars"/><g class="lines"><path class="js-line" d="M0,40.47L0.56,44.57L0.74,32.26L0.79,32.95L0.81,32.95L1.1,43.89L1.25,28.84L1.57,35L1.59,34.31L2.05,41.84L2.18,16.53L2.31,35L2.32,38.42L2.39,41.84L2.57,5.59L3.04,35L3.06,32.95L3.2,41.15L3.68,19.27L3.78,23.37L3.79,18.58L4.17,3.53L4.6,39.79L4.61,38.42L4.63,35.68L4.71,42.52L4.83,15.16L5.33,30.21L5.35,24.05L5.52,15.85L6.08,43.21L6.18,32.26L6.2,30.21L6.5,39.1L6.64,11.06L6.85,17.9L6.86,17.21L6.87,16.53L7.24,39.1L7.29,35L7.31,39.1L7.77,39.79L8.07,7.64L8.09,21.32L8.1,28.84L8.29,11.06L8.81,38.42L8.89,32.95L8.91,31.58L9.31,42.52L9.61,28.16L9.64,30.21L9.66,29.53L9.71,28.84L10.43,45.94L10.45,42.52L10.46,31.58L10.67,45.94L10.88,16.53L11.21,37.05L11.23,30.89L11.69,43.21L11.85,28.16L11.99,37.05L12.01,36.37L12.27,16.53L12.63,43.21L12.71,40.47L12.73,43.21L12.77,44.57L13.58,31.58L13.59,35.68L13.76,19.27L14.27,43.21L14.3,43.21L14.31,43.21L14.4,43.89L15.03,12.43L15.19,14.48L15.21,17.21L15.75,45.26L15.91,39.1L15.93,24.05L16.01,41.84L16.52,10.37L16.68,27.47L16.69,27.47L17.21,43.21L17.37,26.79L17.45,32.26L17.47,32.95L17.94,18.58L18.19,39.79L18.22,37.73L18.23,31.58L18.53,40.47L18.71,12.43L18.82,17.21L18.84,17.9L19.57,43.89L19.6,43.21L19.62,42.52L19.73,43.21L20.42,22L20.44,35.68L20.57,14.48L21.17,41.84L21.19,41.15L21.33,43.21L22.05,9.69L22.07,19.95L22.08,23.37L22.09,17.9L22.58,42.52L22.8,37.05L22.82,34.31L23.06,42.52L23.39,13.79L23.49,25.42L23.51,22.69L23.62,37.05L23.64,35L31.95,30.21L32.28,43.21L32.5,10.37L32.67,31.58L32.69,26.11L32.75,37.73L33.02,3.53L33.45,31.58L33.47,24.74L33.84,43.89L34.09,11.06L34.22,32.26L34.23,24.05L34.39,4.9L34.86,35.68L34.96,35L34.98,39.1L35.08,43.89L35.74,15.85L35.79,19.95L35.8,27.47L35.9,25.42L36.59,44.57L36.62,43.89L36.64,29.53L36.77,41.15L36.98,16.53L37.39,30.21L37.4,32.26L37.41,29.53L37.44,36.37L37.47,34.31L40.25,30.21L40.61,43.21L40.96,27.47L41.06,37.73L41.08,35L41.22,20.63L41.78,39.79L41.8,38.42L41.81,42.52L42.1,45.26L42.79,16.53L42.81,25.42L42.82,29.53L42.89,22.69L43.4,41.15L43.47,39.79L43.48,42.52L43.51,44.57L44.12,11.74L44.33,30.89L44.35,31.58L44.85,44.57L44.97,24.05L45.1,37.73L45.11,28.84L45.28,44.57L45.47,14.48L45.89,41.84L45.9,38.42L46.16,33.63L46.25,44.57L46.29,40.47L46.31,32.95L46.34,33.63L46.37,24.74L46.38,14.48L46.51,37.05L46.68,8.32L47.13,27.47L47.14,29.53L47.49,41.15L47.82,24.05L47.84,21.32L48.09,43.21L48.27,17.9L48.61,34.31L48.63,33.63L49.15,19.95L49.28,42.52L49.39,32.26L49.41,38.42L49.55,42.52L49.74,14.48L50.16,40.47L50.17,38.42L50.54,21.32L50.62,43.89L50.88,34.31L50.89,39.1L51.11,13.79L51.48,41.15L51.6,34.31L51.61,38.42L51.97,43.89L52.35,16.53L52.45,21.32L52.46,30.89L52.58,26.11L53.07,43.89L53.15,39.79L53.17,41.15L53.21,42.52L53.31,26.11L53.51,36.37L53.53,25.42L53.54,17.9L54.15,40.47L54.26,39.79L54.28,40.47L54.52,44.57L55,13.79L55.04,37.73L55.06,33.63L55.23,16.53L55.72,39.79L55.81,37.05L55.82,29.53L55.88,42.52L56.24,20.63L56.57,29.53L56.58,29.53L56.74,18.58L56.93,33.63L56.94,33.63L56.96,36.37L57.13,41.84L57.39,23.37L57.41,28.16L57.42,15.85L57.74,41.84L57.95,7.64L58.2,33.63L58.21,33.63L58.66,26.79L58.79,41.15L58.8,29.53L58.85,41.15L59.45,8.32L59.55,30.89L59.57,30.89L59.83,42.52L60.13,21.32L60.29,33.63L60.3,36.37L60.45,11.74L61.01,37.73L61.04,37.05L61.05,37.05L61.45,43.89L61.53,28.16L61.61,32.95L61.63,29.53L61.87,10.37L61.93,37.05L62.33,22L62.35,23.37L62.81,39.1L62.91,12.43L63.07,32.26L63.08,18.58L63.2,52.78L63.56,17.21L63.85,35.68L63.86,34.31L64.06,42.52L64.31,20.63L64.47,24.05L64.48,6.27L64.54,38.42L65.25,34.31L65.26,34.31L65.65,43.21L65.84,21.32L65.97,37.05L65.98,29.53L66.08,41.15L66.4,2.85L66.72,32.95L66.73,33.63L66.79,39.79L67.36,2.85L67.49,30.21L67.51,35.68L67.8,11.06L68.23,45.26L68.24,42.52L68.26,43.89L68.96,9.01L69.05,18.58L69.06,24.74L69.08,17.21L69.67,41.15L69.77,36.37L69.79,37.05L70.1,41.15L70.53,16.53L70.68,26.79L70.69,29.53L71,41.15L71.37,28.16L71.39,32.95L71.4,37.73L71.46,40.47L71.92,18.58L72.16,35L72.18,33.63L72.61,44.57L72.71,30.21L72.96,42.52L72.97,39.1L73.09,13.11L73.66,41.15L73.71,39.1L73.72,37.05L73.95,41.84L74.28,24.05L74.38,29.53L74.4,29.53L74.69,12.43L75.13,42.52L75.15,39.79L75.33,41.15L75.67,15.85L75.9,32.26L75.91,38.42L76.01,22.69L76.54,39.79L76.65,34.31L76.66,41.15L76.69,43.21L77.41,26.11L77.55,31.58L77.57,30.89L77.68,28.84L77.99,43.21L78.2,37.05L78.22,38.42L78.35,43.89L78.72,28.16L78.95,40.47L78.97,37.73L79.28,43.89L79.46,32.95L79.7,37.73L79.72,35.68L79.76,39.1L79.89,22L80.39,33.63L80.41,39.1L80.45,44.57L81,26.79L81.14,32.95L81.16,18.58L81.27,38.42L81.92,37.05L81.94,35L82.06,41.15L82.54,32.26L82.6,37.05L82.61,39.1L82.97,15.16L83.38,35.68L83.39,36.37L83.46,42.52L83.55,24.05L83.81,39.1L83.82,41.84L84.3,24.05L84.56,42.52L84.59,39.79L84.6,41.15L84.95,45.94L85.25,32.95L85.26,32.95L85.28,32.26L85.57,30.89L86.03,41.84L86.04,41.15L86.06,41.15L86.2,46.63L86.39,37.05L86.84,44.57L86.85,41.15L87.15,21.32L87.58,43.89L87.6,41.15L87.61,39.79L87.93,45.94L88.02,36.37L88.28,41.15L88.29,35L88.36,22.69L88.61,41.84L88.82,41.84L88.84,41.84L89.14,45.26L89.52,34.31L89.57,42.52L89.59,42.52L89.88,28.16L90.21,45.94L90.32,39.1L90.34,43.89L90.41,34.31L90.76,47.31L91.1,38.42L91.12,36.37L91.19,32.26L91.84,47.31L91.94,45.94L91.95,44.57L92.59,28.16L92.76,34.31L92.77,37.05L92.82,32.95L93.25,46.63L93.38,39.1L93.39,42.52L93.68,43.89L94.04,29.53L94.17,35.68L94.19,37.05L94.78,30.21L94.86,45.94L94.89,43.21L94.91,44.57L95.35,32.95L95.66,39.1L95.67,39.79L96.02,45.26L96.28,32.95L96.43,35.68L96.45,37.05L96.82,31.58L97,46.63L97.27,44.57L97.28,41.15L97.36,47.99L97.64,26.79L97.75,30.89L97.76,20.63L98.54,45.26L98.55,40.47L98.74,34.31L98.97,45.94L99.3,41.84L99.32,35.68L99.52,29.53L99.91,45.94L99.94,43.21L99.95,43.89L100.14,48.68L100.4,37.05L100.57,43.21L100.58,44.57L101.02,27.47L101.36,39.79L101.38,40.47L101.67,46.63L102.04,28.84L102.14,36.37L102.16,37.73L102.21,28.84L102.69,47.31L102.88,37.05L102.89,45.94L103.78,31.58L103.87,36.37L103.89,36.37L104.29,22L104.4,45.94L104.59,41.84L104.61,43.21L105.02,33.63L105.21,45.26L105.36,42.52L105.37,44.57L105.72,25.42L105.83,46.63L106.1,43.89L106.12,45.26L106.38,29.53L106.85,39.1L106.87,40.47L106.96,43.89L107.19,32.95L107.62,39.1L107.63,40.47L107.89,25.42L108.32,42.52L108.34,41.84L108.35,44.57L108.51,46.63L108.63,33.63L108.66,33.63L108.67,27.47L108.7,25.42L108.92,42.52L109.29,33.63L109.3,35.68L109.81,31.58L109.88,44.57L110.07,39.79L110.08,40.47L110.64,28.84L110.82,45.94L110.88,43.89L110.89,42.52L110.92,45.94L111.13,30.21L111.62,41.15L111.64,41.84L111.67,44.57L112.09,30.89L112.39,39.79L112.4,41.15L112.43,36.37L112.76,45.94L112.99,42.52L113.01,42.52L113.38,29.53L113.71,45.26L113.74,43.89L113.76,43.21L113.93,32.26L114,46.63L114.48,39.79L114.49,36.37L114.78,34.31L115.26,47.31L115.29,42.52L115.3,39.79L115.63,45.94L116.09,24.05L116.11,31.58L116.73,47.99L116.87,45.26L116.89,43.89L116.9,45.94L117.04,30.89L117.59,39.79L117.61,36.37L117.91,47.31L118.07,34.31L118.31,39.79L118.33,38.42L118.49,44.57L118.86,24.74L118.87,17.21L119.64,43.89L119.7,35.68L119.71,35L119.98,38.42L120.24,22.69L120.45,28.16L120.46,37.05L120.49,31.58L121.02,45.26L121.04,40.47L121.05,45.26L121.09,45.94L121.79,28.16L121.84,41.15L121.86,40.47L121.94,35L122.62,44.57L122.64,43.89L122.72,45.26L123.08,27.47L123.33,41.15L123.34,38.42L123.46,35.68L124.15,45.94L124.16,43.89L124.18,44.57L124.19,45.94L124.55,29.53L124.86,36.37L124.87,35L125.23,45.94L125.33,31.58L125.63,39.79L125.65,39.79L125.79,31.58L126.01,44.57L126.38,41.84L126.4,44.57L126.54,45.94L127.25,26.79L127.32,31.58L127.33,33.63L127.84,45.94L128.14,43.21L128.16,39.1L128.29,45.26L128.62,34.31L128.88,43.89L128.89,44.57L129.04,47.99L129.54,36.37L129.65,43.89L129.67,44.57L130.06,27.47L130.36,45.26L130.46,39.1L130.48,39.79L130.75,46.63L130.81,36.37L131.2,39.1L131.21,37.05L131.24,37.73L131.4,25.42L131.41,24.05L132.23,46.63L132.41,43.89L132.42,42.52L132.44,45.94L132.74,18.58L133.16,41.84L133.17,41.84L133.69,47.31L133.83,37.05L133.94,39.79L133.95,40.47L134.24,32.95L134.47,45.26L134.71,44.57L134.73,44.57L135,46.63L135.28,30.89L135.48,36.37L135.49,37.73L135.54,34.31L135.75,45.94L136.21,39.79L136.23,41.15L136.6,44.57L136.73,26.79L136.9,30.21L136.92,24.05L137.44,43.89L137.68,35.68L137.7,31.58L137.88,43.21L138.14,26.79L138.46,35L138.48,35.68L138.53,30.21L138.81,43.21L139.11,39.79L139.12,41.84L139.37,45.26L139.73,27.47L139.9,35.68L139.92,37.73L140.06,44.57L140.58,34.31L140.62,39.1L140.64,41.84L140.75,43.89L140.94,24.05L141.4,37.73L141.42,39.1L141.76,45.94L141.83,35.68L142.14,43.89L142.15,43.89L142.74,30.21L142.91,37.05L142.93,43.21L143.43,45.94L143.66,32.26L143.74,34.31L143.75,35L143.94,31.58L144.37,41.84L144.53,39.79L144.54,36.37L144.63,45.94L145.29,37.73L145.31,39.1L145.45,41.15L145.61,32.26L145.78,32.26L145.8,26.79L146.29,44.57L146.56,30.21L146.58,31.58L146.65,22.69L147.07,45.26L147.37,41.15L147.38,40.47L147.53,43.89L147.94,32.26L147.97,32.26L147.99,23.37L148,21.32L148.51,43.89L148.65,37.73L148.67,37.73L148.87,43.21L149.34,20.63L149.44,26.11L149.46,33.63L149.52,32.95L149.89,43.21L150.14,37.05L150.15,37.73L150.44,43.21L150.74,30.21L150.91,35L150.93,36.37L151.49,45.94L151.69,41.84L151.71,40.47L151.72,43.89L152.17,19.27L152.44,36.37L152.46,39.1L153.03,30.89L153.16,43.89L153.19,41.84L153.21,43.21L153.52,32.26L154,36.37L154.01,38.42L154.04,45.26L154.57,26.79L154.62,30.89L154.63,27.47L154.66,25.42L154.88,39.1L155.12,31.58L155.14,35.68L155.7,43.21L155.76,28.84L155.89,35.68L155.9,36.37L155.97,45.94L156.3,18.58L156.66,39.79L156.68,36.37L156.85,24.74L157.01,46.63L157.43,36.37L157.44,36.37L157.63,22L157.93,37.73L157.99,37.05L158,39.1L158.18,28.16L158.39,45.26L158.75,37.73L158.77,41.15L159.01,26.79L159.42,43.89L159.52,39.79L159.53,41.15L159.85,44.57L160.4,26.79L160.45,29.53L160.47,32.95L160.51,26.79L161.02,43.21L161.03,41.84L161.05,41.84L161.06,43.89L161.42,22.69L161.74,33.63L161.75,31.58L161.79,19.27L161.95,37.05L162.01,36.37L162.03,37.05L162.46,44.57L162.59,30.89L162.75,38.42L162.76,35L162.85,43.89L163.18,28.16L163.52,36.37L163.54,38.42L163.86,39.1L163.93,24.74L164.32,28.84L164.33,37.73L164.61,31.58L165.1,45.26L165.14,43.21L165.15,39.79L165.35,44.57L165.47,28.16L165.48,23.37L166.48,43.89L166.49,40.47L166.51,39.1L166.58,43.89L166.91,17.9L167.24,35.68L167.26,36.37L167.29,28.16L167.99,43.89L168.01,44.57L168.57,24.05L168.81,34.31L168.83,34.31L168.87,32.95L169.61,43.89L169.62,40.47L169.64,41.84L170.11,24.74L170.44,36.37L170.46,39.1L170.49,37.05L170.85,44.57L171.18,41.15L171.19,42.52L171.54,28.84L171.91,35.68L171.93,40.47L172.11,35L172.58,44.57L172.65,36.37L172.66,35L172.85,30.21L173.27,43.21L173.5,42.52L173.51,39.1L173.61,44.57L173.67,35L174.1,39.1L174.12,36.37L174.13,28.16L174.72,41.84L174.85,39.79L174.87,38.42L174.91,40.47L175.13,26.79L175.57,33.63L175.59,31.58L175.67,24.05L176.12,42.52L176.15,41.15L176.16,41.84L176.73,45.94L177.06,20.63L177.07,30.21L177.09,32.26L177.4,30.89L177.63,44.57L177.99,40.47L178.01,32.26L178.11,45.26L178.21,24.74L178.47,34.31L178.48,27.47L179.19,44.57L179.42,39.79L179.44,37.05L179.49,45.26L179.8,24.05L180.19,39.79L180.2,38.42L180.66,43.89L180.8,32.26L180.95,38.42L180.96,38.42L181.18,26.11L181.67,43.21L181.68,41.84L181.7,41.15L181.77,45.94L182.32,26.11L182.46,36.37L182.48,35.68L182.62,24.05L183.15,45.94L183.17,43.21L183.18,43.21L183.3,45.94L184.02,30.89L184.08,32.95L184.09,33.63L184.44,42.52L184.77,29.53L184.81,34.31L184.83,37.05L185.09,32.26L185.53,43.21L185.55,41.84L185.56,41.84L185.92,45.94L186.11,36.37L186.28,43.21L186.3,41.15L186.41,43.89L186.73,26.11L186.97,37.73L186.99,36.37L187.28,35.68L187.65,43.89L187.75,41.15L187.77,41.84L187.8,45.26L188.01,25.42L188.47,39.79L188.49,37.73L188.59,44.57L189.11,32.26L189.24,37.73L189.25,37.73L189.38,25.42L189.94,41.84L189.97,41.15L189.99,42.52L190.55,44.57L190.79,30.21L190.81,32.26L190.89,24.05L191.53,45.26L191.54,45.26L191.56,43.21L191.59,44.57L192.08,33.63L192.15,36.37L192.16,32.95L192.31,27.47L192.77,40.47L192.85,35.68L192.87,38.42L193.01,39.1L193.44,24.05L193.63,36.37L193.65,38.42L193.66,37.05L194.02,45.94L194.35,43.21L194.37,43.21L194.63,24.74L195.13,32.95L195.15,35.68L195.53,44.57L195.81,33.63L195.85,40.47L195.87,43.21L196.05,45.26L196.33,26.79L196.6,41.84L196.62,43.21L197.25,45.26L197.41,27.47L197.42,28.84L197.44,41.15L197.49,43.21L197.81,23.37L198.19,40.47L198.2,41.15L198.6,44.57L198.99,32.95L199.01,35L199.09,26.79L199.74,43.21L199.77,39.79L199.79,41.15L199.9,43.89L200.39,29.53L200.56,36.37L200.58,39.1L200.91,43.21L201.31,26.11L201.34,36.37L201.36,39.79L201.43,42.52L201.75,24.74L202.09,39.1L202.11,39.1L202.47,44.57L202.8,35.68L202.88,42.52L202.9,43.21L202.97,43.89L203.17,35L203.19,32.95L203.2,31.58L203.85,45.26L203.86,45.26L204.61,28.84L204.7,31.58L204.72,32.95L205.15,31.58L205.44,45.94L205.49,39.79L205.51,43.21L205.54,43.89L206.11,24.05L206.3,37.05L206.32,39.1L206.59,31.58L206.79,44.57L207.05,41.15L207.06,43.21L207.48,29.53L207.81,42.52L207.83,42.52L208.06,45.94L208.48,32.95L208.52,35.68L208.53,35L208.92,33.63L209.24,43.89L209.3,41.84L209.31,37.73L209.59,45.26L210.03,35L210.05,37.73L210.06,33.63L210.22,30.21L210.88,45.26L210.94,43.89L210.96,43.21L210.98,44.57L211.42,30.21L211.63,40.47L211.65,34.31L212.11,45.94L212.41,39.79L212.43,39.79L212.56,41.15L212.69,28.16L213.2,36.37L213.22,38.42L213.56,33.63L213.78,44.57L213.97,43.89L213.98,31.58L214.05,43.89L214.4,17.21L214.73,41.84L214.75,41.15L215.12,45.94L215.35,30.89L215.47,35L215.48,34.31L215.73,20.63L215.84,41.84L216.16,38.42L216.17,38.42L216.27,35.68L216.53,43.89L216.92,39.79L216.94,39.1L217.05,24.74L217.63,41.84L217.67,40.47L217.69,40.47L217.73,44.57L218.55,28.84L218.58,30.89L218.59,34.31L219.06,32.95L219.27,45.26L219.46,41.84L219.47,40.47L219.5,43.89L219.89,29.53L220.21,39.79L220.22,39.1L220.45,30.89L220.68,45.94L221,41.84L221.02,41.84L221.03,43.21L221.22,26.11L221.74,38.42L221.75,37.73L222.24,44.57L222.46,35L222.47,37.05L222.49,35L222.51,32.26L223.06,45.94L223.29,45.26L223.31,43.21L223.64,45.26L224.06,32.26L224.07,36.37L224.09,37.73L224.62,34.31L224.78,44.57L224.79,45.94L225.35,30.89L225.58,40.47L225.6,41.15L225.92,35.68L226.18,46.63L226.33,43.21L226.35,41.84L226.52,43.89L226.69,34.31L226.82,36.37L226.84,34.31L227.56,47.31L227.6,45.94L227.62,43.89L227.65,45.94L227.82,28.84L228.32,39.1L228.34,39.1L228.76,32.26L228.99,47.31L229.1,40.47L229.12,40.47L229.26,43.21L229.63,28.84L229.85,37.05L229.87,39.1L230.12,35.68L230.51,45.94L230.54,43.21L230.56,45.26L230.69,47.31L231.06,30.21L231.39,38.42L231.41,40.47L231.52,34.31L231.94,45.94L232.2,43.21L232.21,43.21L232.46,39.79L232.53,47.99L232.59,47.31L232.6,47.99L232.92,49.36L233.24,40.47L233.4,44.57L233.41,45.94L233.83,36.37L234.15,44.57L234.16,46.63L234.36,47.31L234.91,36.37L234.92,37.73L234.94,34.31L235.05,31.58L235.56,43.89L235.7,41.84L235.72,37.73L235.9,45.26L236.37,31.58L236.45,35L236.47,36.37L236.57,32.26L236.94,43.21L237.07,37.05L237.09,43.21L237.11,45.26L237.76,35L237.85,35.68L237.86,39.79L237.94,34.31L238.41,45.26L238.56,41.15L238.57,43.21L238.63,45.94L238.84,34.31L239.13,35.68L239.15,32.26L239.28,30.21L239.93,45.26L239.94,43.89L239.95,43.89L240.05,45.94L240.72,32.26L240.73,32.95L240.75,39.1L240.78,35L241.44,45.94L241.5,38.42L241.51,40.47L241.54,32.95L241.6,45.26L242.25,41.84L242.26,43.89L242.42,46.63L242.85,39.79L243.02,41.84L243.04,43.89L243.41,28.84L243.7,45.26L243.79,43.21L243.8,43.89L244.12,47.31L244.25,28.84L244.68,36.37L244.7,36.37L244.71,31.58L245.43,45.94L245.45,44.57L245.53,45.94L246.22,31.58L246.24,35L246.25,35.68L246.81,47.31L247.07,46.63L247.09,44.57L247.26,45.94L247.56,33.63L247.85,43.21L247.87,43.89L248.21,37.73L248.27,45.94L248.63,41.84L248.64,43.21L249.08,34.31L249.35,44.57L249.41,39.79L249.42,41.15L249.65,54.15L249.83,24.74L250.23,37.05L250.24,37.05L250.3,34.31L250.53,44.57L250.69,41.15L250.71,42.52L251.25,37.05L251.46,45.26L251.47,41.15L251.6,30.89L252,44.57L252.15,43.21L252.16,43.89L252.28,46.63L252.38,37.73L252.77,44.57L252.78,41.84L253.13,33.63L253.5,46.63L253.53,43.21L253.54,42.52L253.86,46.63L254.08,33.63L254.16,42.52L254.18,43.21L254.19,43.89L254.51,30.21L254.87,41.84L254.89,37.05L255.04,35.68L255.36,45.94L255.65,43.21L255.66,40.47L255.81,30.89L256.18,44.57L256.31,39.79L256.33,35.68L256.36,35L256.57,46.63L257.1,38.42L257.12,41.15L257.31,32.26L257.49,45.26L257.85,43.89L257.87,44.57L258.13,29.53L258.39,45.94L258.55,40.47L258.56,34.31L258.65,31.58L259.3,47.31L259.34,45.26L259.35,45.26L259.55,46.63L259.67,37.05L259.93,41.15L259.94,37.73L260.02,33.63L260.53,43.21L260.64,37.05L260.65,34.31L260.77,45.26L260.97,31.58L261.4,37.05L261.41,35.68L261.93,46.63L262.11,34.31L262.28,42.52L262.29,37.73L262.41,46.63L262.81,32.95L263.04,41.84L263.06,41.15L263.1,45.26L263.26,36.37L263.82,43.89L263.84,43.21L263.88,45.26L264.15,31.58L264.63,39.79L264.64,40.47L264.83,45.26L265.39,33.63L265.41,39.1L265.48,30.21L265.87,45.26L266.11,37.73L266.13,38.42L266.37,33.63L266.44,46.63L266.85,37.05L266.86,34.31L266.98,30.21L267.25,45.94L267.74,43.21L267.76,41.84L267.94,45.94L268.3,30.89L268.46,39.1L268.48,38.42L268.94,35.68L269.23,45.26L269.24,43.21L269.25,40.47L269.44,46.63L269.59,32.95L269.89,41.15L269.9,43.89L270.19,35.68L270.59,46.63L270.65,43.89L270.67,45.26L270.87,50.73L271.01,29.53L271.39,43.21L271.4,41.15L271.68,45.94L271.94,38.42L272.15,42.52L272.17,41.15L272.25,44.57L272.3,38.42L272.35,38.42L272.37,30.89L273.12,46.63L273.13,45.26L273.15,44.57L273.17,45.94L273.79,32.26L273.82,35L273.84,35L273.94,34.31L274.13,46.63L274.64,44.57L274.66,44.57L275.03,45.94L275.13,33.63L275.35,37.73L275.37,40.47L275.78,35.68L275.88,45.26L276.13,41.84L276.14,41.15L276.45,32.95L276.85,45.26L276.89,43.21L276.91,43.21L277.2,35L277.43,45.94L277.61,42.52L277.63,38.42L277.74,44.57L277.97,31.58L278.39,43.89L278.41,41.84L278.57,32.95L278.71,46.63L279.11,39.79L279.13,42.52L279.44,32.95L279.62,43.89L279.89,39.79L279.91,40.47L279.98,45.94L280.05,30.89L280.65,37.73L280.67,40.47L280.8,36.37L281.27,46.63L281.4,42.52L281.42,41.84L281.56,30.21L281.62,46.63L282.15,38.42L282.17,38.42L282.2,37.73L282.69,47.31L282.93,45.26L282.95,41.84L283.15,46.63L283.29,31.58L283.7,43.89L283.71,43.21L283.78,45.26L284.2,35L284.45,42.52L284.46,43.89L284.86,32.26L285.12,45.94L285.21,43.21L285.22,44.57L285.4,37.73L285.7,45.26L285.81,39.79L285.83,36.37L285.87,28.84L286.55,43.89L286.56,43.89L286.87,36.37L287,46.63L287.33,41.84L287.34,45.26L287.67,32.95L287.99,43.21L288.01,45.26L288.19,36.37L288.35,47.99L288.77,43.89L288.78,43.21L288.84,45.94L289.11,32.26L289.17,34.31L289.19,32.26L289.88,45.26L289.95,41.15L289.97,40.47L290.48,35L290.7,46.63L290.73,44.57L290.74,45.26L290.95,47.99L291.31,38.42L291.48,42.52L291.49,45.94L291.85,32.26L292.3,37.05L292.31,39.79L292.33,35.68L292.57,43.89L293.06,39.1L293.08,37.05L293.16,30.89L293.57,44.57L293.8,40.47L293.81,43.21L293.9,40.47L294.14,46.63L294.42,42.52L294.43,38.42L294.56,35L294.89,46.63L295.2,41.84L295.21,39.1L295.3,45.94L295.95,30.21L296.08,33.63L296.09,37.05L296.23,43.89L296.54,35L296.64,42.52L296.65,43.89L297.17,44.57L297.27,29.53L297.49,37.05L297.5,39.1L297.88,34.31L298.11,44.57L298.25,40.47L298.27,41.15L298.74,31.58L298.97,43.21L299.03,42.52L299.05,42.52L299.35,44.57L299.39,32.95L299.82,41.15L299.84,40.47L299.9,35L300.41,44.57L300.59,42.52L300.6,41.15L301.02,35.68L301.14,44.57L301.32,39.79L301.34,37.73L301.38,30.89L301.86,44.57L302,35.68L302.01,39.1L302.23,45.26L302.69,39.1L302.71,37.73L303.18,43.89L303.46,29.53L303.47,31.58L303.48,37.73L303.71,44.57L304.13,32.95L304.2,36.37L304.22,33.63L304.25,32.26L304.68,43.89L304.87,35L304.88,39.79L304.94,45.26L305.08,37.05L305.47,39.79L305.49,34.31L305.5,30.21L305.95,43.89L306.22,37.73L306.24,38.42L306.48,44.57L306.99,32.26L307,35L307.02,37.05L307.07,35.68L307.55,45.94L307.69,38.42L307.71,41.84L308.07,43.21L308.34,32.26L308.51,35.68L308.53,38.42L308.89,45.26L309.05,35.68L309.26,38.42L309.28,37.05L309.58,45.26L309.72,33.63L310.06,42.52L310.07,42.52L310.11,45.26L310.6,37.05L310.68,39.79L310.69,36.37L311.17,30.89L311.43,43.89L311.45,43.21L311.47,43.21L311.71,36.37L312,46.63L312.12,38.42L312.13,35L312.43,26.11L312.94,43.21L312.95,43.21L313.16,34.31L313.37,43.89L313.7,40.47L313.72,41.15L313.86,31.58L314.29,43.89L314.45,38.42L314.47,39.1L314.7,35L315,43.21L315.17,37.05L315.19,34.31L315.27,29.53L315.63,43.89L315.92,41.15L315.94,39.1L316.17,43.89L316.69,31.58L316.71,33.63L316.73,32.26L317.55,47.31L317.65,46.63L317.67,45.94L317.74,46.63L317.93,30.21L318.34,42.52L318.36,40.47L318.4,44.57L318.6,39.1L318.78,39.1L318.79,32.95L319.01,44.57L319.55,37.05L319.57,38.42L320.09,46.63L320.23,37.05L320.26,37.73L320.27,35L320.51,43.21L321.02,40.47L321.04,40.47L321.17,45.94L321.36,38.42L321.8,44.57L321.82,42.52L322.21,34.31L322.52,45.26L322.55,43.21L322.57,43.21L322.87,37.05L323.11,46.63L323.32,43.21L323.33,43.89L323.45,45.26L323.66,32.26L324.05,44.57L324.07,41.84L324.12,34.31L324.48,45.26L324.77,41.15L324.79,39.79L325,30.21L325.22,46.63L325.52,38.42L325.54,38.42L325.62,35.68L325.88,45.26L326.28,37.05L326.3,37.05L326.37,32.26L326.83,44.57L327.08,43.21L327.09,41.84L327.25,45.94L327.86,35.68L327.91,37.05L327.93,38.42L327.97,37.05L328.12,46.63L328.65,39.79L328.66,43.21L328.71,44.57L328.79,34.31L329.41,40.47L329.43,41.84L329.47,46.63L330.25,34.31L330.26,35L330.28,39.1L330.67,34.31L330.78,43.89L331.01,39.1L331.03,42.52L331.3,44.57L331.85,33.63L331.86,37.05L331.91,34.31L332.7,45.26L332.71,41.84L332.73,37.05L332.74,32.26L332.86,43.21L333.46,37.73L333.48,37.73L333.94,35L334.28,45.26L334.3,42.52L334.77,30.89L334.96,45.94L335.03,42.52L335.05,43.21L335.29,38.42L335.58,44.57L335.68,40.47L335.7,37.73L336.09,30.21L336.39,48.68L336.47,43.89L336.49,43.89L336.68,37.73L336.91,45.26L337.24,39.79L337.25,43.89L337.32,30.89L337.77,44.57L337.94,42.52L337.96,43.89L338.03,45.94L338.74,38.42L338.77,39.1L338.78,41.84L338.85,38.42L339.21,46.63L339.53,39.1L339.54,41.15L339.73,43.89L339.76,30.89L340.32,38.42L340.34,39.79L340.84,33.63L340.94,45.94L341.1,41.84L341.12,39.1L341.2,45.26L341.66,34.31L341.88,42.52L341.89,41.84L341.95,44.57L342.14,35L342.48,41.15L342.5,37.05L342.54,31.58L343.21,44.57L343.26,41.84L343.28,43.21L343.31,45.26L343.54,32.26L344.03,41.84L344.04,41.15L344.4,30.21L344.69,45.26L344.82,43.21L344.83,42.52L344.98,35.68L345.51,43.89L345.54,41.15L345.55,39.79L345.86,30.89L346.13,44.57L346.29,39.1L346.3,37.05L346.64,47.31L347.01,33.63L347.04,37.05L347.05,31.58L347.72,45.26L347.89,43.89L347.9,43.21L348.03,47.31L348.38,32.95L348.67,42.52L348.68,43.21L349.16,47.99L349.46,37.73L349.52,39.79L349.53,40.47L349.71,44.57L350.02,34.31L350.28,43.89L350.3,41.15L350.66,47.31L350.99,34.31L351.05,43.21L351.06,40.47L351.41,34.31L351.85,43.89L351.87,39.79L352.13,45.94L352.59,35L352.6,35.68L352.62,37.73L352.65,30.89L352.99,44.57L353.32,44.57L353.34,46.63L353.96,28.84L354.13,30.89L354.14,34.31L354.17,30.89L354.58,45.26L354.84,39.1L354.85,42.52L355.07,45.26L355.37,33.63L355.63,39.1L355.64,40.47L356.03,36.37L356.15,45.94L356.33,39.79L356.35,37.73L356.41,44.57L356.74,36.37L357.11,41.15L357.13,41.84L357.37,45.26L357.73,36.37L357.85,41.84L357.86,40.47L358.18,35L358.48,43.89L358.55,42.52L358.57,38.42L358.73,44.57L358.84,37.73L359.33,41.84L359.35,43.89L359.55,35L360.08,45.26L360.1,43.89L360.11,43.21L360.3,35.68L360.37,47.31L360.76,38.42L360.77,36.37L360.92,32.26L361.26,45.26L361.41,41.84L361.42,43.89L361.52,46.63L362.45,33.63L362.46,37.05L362.47,34.31L362.89,47.99L363.18,39.79L363.2,40.47L363.38,46.63L363.74,36.37L363.92,39.79L363.93,43.21L364.41,47.99L364.61,39.1L364.62,41.15L364.64,39.79L364.92,42.52L365.24,29.53L365.37,40.47L365.39,41.84L365.59,39.79L365.88,47.99L366.16,47.31L366.18,46.63L366.19,48.68L366.35,34.31L366.91,43.21L366.93,41.15L367.3,48.68L367.69,44.57L367.71,43.89L367.92,39.79L368.43,48.68L368.47,46.63L368.48,47.31L368.53,49.36L368.8,39.79L369.08,46.63L369.09,41.84L369.18,30.89L369.48,40.47L369.49,43.21L370.01,44.57L370.36,33.63L370.37,35L370.39,39.79L370.63,30.89L371.06,43.89L371.14,41.15L371.15,40.47L371.25,32.95L371.28,44.57L371.87,41.84L371.89,37.73L372.07,32.26L372.56,45.94L372.66,43.21L372.68,42.52L372.78,45.26L373.41,30.89L373.47,34.31L373.49,34.31L373.57,32.95L374.22,46.63L374.28,41.15L374.29,39.79L374.61,43.21L374.77,30.89L375.01,39.79L375.03,38.42L375.6,47.31L375.63,36.37L375.78,40.47L375.79,37.73L375.88,43.21L376.18,32.95L376.44,40.47L376.45,42.52L376.73,46.63L377.05,36.37L377.13,39.79L377.15,37.05L377.18,34.31L377.26,43.21L377.78,42.52L377.8,43.21L378.21,46.63L378.53,25.42L378.6,40.47L378.62,41.84L378.95,32.95L379.16,43.89L379.37,41.84L379.38,42.52L379.7,46.63L379.8,35.68L379.86,39.1L379.87,36.37L380.22,28.16L380.65,43.21L380.66,41.84L380.68,42.52L381.12,45.94L381.25,33.63L381.38,39.1L381.4,39.79L381.47,43.21L381.69,31.58L382.13,41.15L382.15,41.15L382.52,46.63L382.59,33.63L382.87,41.15L382.88,39.1L383.07,31.58L383.63,45.26L383.69,44.57L383.7,41.84L383.81,47.99L384.05,31.58L384.48,33.63L384.5,35L384.63,32.95L385.19,46.63L385.3,43.21L385.32,41.84L385.36,27.47L385.59,43.21L386.05,39.1L386.07,41.84L386.66,45.94L386.76,34.31L386.83,39.79L386.85,41.15L387.02,44.57L387.25,35L387.58,42.52L387.6,43.21L387.84,47.99L388.24,36.37L388.36,40.47L388.37,41.84L388.68,37.73L389.24,47.31L389.25,45.94L389.54,35L390.12,36.37L390.13,37.73L390.16,34.31L390.72,46.63L390.75,44.57L390.77,45.94L390.82,46.63L391.33,30.89L391.53,35.68L391.54,38.42L391.59,37.73L391.76,45.94L392.05,45.26L392.06,46.63L392.09,47.99L392.34,33.63L392.58,37.73L392.6,36.37L392.81,31.58L393.35,43.89L393.4,41.84L393.42,37.73L393.59,46.63L394.12,27.47L394.14,30.89L394.77,45.94L394.9,43.89L394.92,45.94L394.96,46.63L395.21,30.21L395.52,38.42L395.54,36.37L395.59,35L395.84,44.57L396,43.89L396.01,44.57L396.13,47.99L396.88,32.26L396.91,34.31L396.92,34.31L396.98,32.95L397.54,48.68L397.58,43.89L397.6,44.57L397.63,45.26L397.93,20.63L398.26,39.1L398.28,37.05L398.36,26.11L399.01,45.26L399.11,44.57L399.13,43.21L399.17,44.57L399.46,31.58L399.73,34.31L399.75,33.63L400.49,46.63L400.54,45.26L400.55,43.89L401.13,30.21L401.32,39.79L401.33,40.47L401.85,46.63L401.98,37.73L402.08,41.84L402.09,39.79L402.24,33.63L402.69,43.21L402.8,42.52L402.82,43.21L403.22,46.63L403.55,30.89L403.59,36.37L403.61,41.84L403.65,43.89L403.95,30.89L404.34,41.15L404.36,39.1L404.65,46.63L405.09,31.58L405.11,37.05L405.25,32.95L405.77,45.94L405.81,43.89L405.83,44.57L405.96,45.94L406.22,37.73L406.56,41.84L406.58,41.15L406.74,39.79L407.17,47.31L407.25,43.21L407.27,45.26L407.31,45.94L408,27.47L408.1,32.95L408.12,31.58L408.75,47.99L408.91,37.73L408.93,38.42L409.14,41.15L409.29,30.89L409.53,37.05L409.55,40.47L410.15,46.63L410.28,30.89L410.35,36.37L410.37,37.73L410.55,28.84L411.06,43.21L411.15,42.52L411.16,40.47L411.48,46.63L411.72,36.37L411.92,43.21L411.94,39.79L412.07,32.26L412.69,43.21L412.7,41.15L412.9,46.63L413.28,35L413.39,39.1L413.41,36.37L413.67,29.53L414.1,46.63L414.14,43.21L414.16,41.15L414.29,45.94L414.94,32.26L414.95,31.58L415.69,46.63L415.73,41.15L415.74,39.79L416.13,44.57L416.25,37.73L416.39,38.42L416.41,35.68L416.85,46.63L417.16,39.79L417.17,38.42L417.49,46.63L417.78,30.21L417.83,33.63L417.85,32.95L418.45,45.94L418.61,38.42L418.63,39.1L418.8,45.26L418.99,32.26L419.3,41.84L419.32,41.84L419.65,46.63L419.95,35.68L419.97,35L420.27,45.94L420.33,27.47L420.73,39.1L420.74,37.05L420.89,35.68L421.25,45.26L421.54,41.15L421.55,39.79L421.83,32.26L422.26,43.89L422.32,42.52L422.33,41.15L422.7,38.42L422.99,46.63L423.06,41.15L423.08,41.15L423.21,32.26L423.48,45.94L423.81,45.26L423.83,47.31L423.97,47.99L424.04,39.1L424.51,43.89L424.52,43.21L424.58,37.05L425.14,47.99L425.17,44.57L425.18,47.31L425.33,49.36L426.11,38.42L426.12,41.84L426.19,40.47L426.71,48.68L426.84,41.84L426.86,41.15L427.14,43.89L427.43,30.21L427.59,37.73L427.6,42.52L428.14,46.63L428.41,33.63L428.43,36.37L428.44,37.73L428.5,43.21L428.84,32.95L429.16,39.1L429.18,42.52L429.45,45.94L429.77,35.68L429.91,42.52L429.93,43.21L430.18,29.53L430.56,43.89L430.63,41.15L430.65,40.47L431.02,37.05L431.25,45.26L431.38,40.47L431.4,39.79L431.54,30.21L431.83,43.89L432.09,43.21L432.1,43.89L432.38,46.63L432.61,37.73L432.66,41.84L432.68,38.42L432.79,34.31L433.28,45.26L433.41,41.15L433.43,43.21L433.74,46.63L433.96,36.37L434.09,42.52L434.1,43.89L434.36,32.95L434.71,44.57L434.85,39.1L434.87,39.79L435.45,26.79L435.47,45.94L435.6,40.47L435.62,38.42L435.98,32.26L436.28,46.63L436.38,45.26L436.4,43.21L436.68,32.95L436.87,47.31L437.07,39.1L437.09,38.42L437.13,35.68L437.77,45.26L437.79,42.52L437.81,45.26L437.82,45.94L438.36,34.31L438.39,35L438.4,32.95L438.44,31.58L438.86,45.94L439.01,41.84L439.02,44.57L439.42,45.26L439.74,30.89L439.91,35L439.93,36.37L440.6,45.26L440.68,41.15L440.69,36.37L441.09,35L441.53,45.26L441.56,44.57L441.57,43.21L441.96,45.94L442.25,37.73L442.29,45.26L442.31,45.94L442.32,47.31L442.58,30.21L443.03,43.21L443.04,41.84L443.31,45.94L443.55,37.05L443.75,41.84L443.76,44.57L443.89,29.53L444.42,41.84L444.44,43.21L444.53,46.63L444.93,37.05L445.23,39.79L445.25,39.79L445.33,37.05L445.94,46.63L446.01,43.89L446.02,42.52L446.31,33.63L446.49,45.26L446.69,39.79L446.7,36.37L446.76,27.47L447.51,47.31L447.59,43.21L447.61,39.1L447.85,44.57L448.11,35.68L448.13,28.16L448.14,26.79L448.5,45.26L448.78,41.15L448.79,44.57L448.89,45.94L449.48,29.53L449.64,32.26L449.66,33.63L450.28,46.63L450.43,41.15L450.45,41.84L451,35L451.14,45.94L451.18,41.15L451.2,45.26L451.66,47.99L451.82,37.05L451.96,38.42L451.98,39.1L452.28,32.95L452.78,45.26L452.8,42.52L453.04,49.36L453.5,37.05L453.53,41.15L453.55,40.47L453.65,32.95L454.25,46.63L454.28,42.52L454.3,45.94L454.34,47.31L454.97,25.42L455.06,35.68L455.08,39.79L455.15,37.05L455.65,47.99L455.77,45.94L455.78,47.31L456.03,24.74L456.57,36.37L456.59,40.47L457.19,45.94L457.22,37.05L457.32,42.52L457.34,37.73L457.44,32.95L458.1,44.57L458.12,41.84L458.13,41.15L458.58,47.31L458.72,37.05L458.87,39.79L458.88,40.47L459.04,33.63L459.46,46.63L459.64,39.1L459.66,39.79L459.83,35L459.89,45.94L460.32,44.57L460.34,44.57L460.72,33.63L460.94,45.26L461.09,41.15L461.1,43.21L461.34,45.26L461.98,24.05L462.01,30.89L462.02,32.95L462.6,44.57L462.81,42.52L462.83,39.1L463.12,45.26L463.38,35L463.56,41.84L463.58,41.84L464,35L464.3,46.63L464.31,45.26L464.33,39.79L464.39,31.58L464.96,45.94L465.11,45.26L465.12,43.89L465.29,52.1L465.55,35L465.86,44.57L465.87,41.84L465.91,45.94L466.17,30.89L466.61,39.79L466.62,40.47L466.73,35.68L466.89,47.99L467.28,35.68L467.3,35.68L467.46,28.16L467.8,45.26L468.08,43.21L468.09,37.73L468.25,45.94L468.46,24.74L468.82,36.37L468.84,33.63L468.87,28.16L469.43,45.26L469.5,42.52L469.52,43.21L469.83,46.63L469.91,28.84L470.12,36.37L470.14,31.58L470.28,27.47L470.87,43.89L470.94,43.21L470.96,43.21L471.03,45.26L471.16,30.21L471.39,37.73L471.4,42.52L471.64,28.84L472.08,43.89L472.14,41.15L472.15,43.21L472.43,47.31L472.53,37.73L472.86,41.84L472.87,41.15L473.18,28.84L473.32,44.57L473.44,40.47L473.45,42.52L473.6,47.31L474.04,30.89L474.2,41.15L474.21,42.52L474.36,31.58L474.59,45.26L474.76,43.21L474.78,44.57L475.28,47.31L475.41,38.42L475.48,39.79L475.5,37.73L475.81,32.95L476.23,44.57L476.26,43.21L476.28,37.05L476.46,47.99L476.82,36.37L477.03,38.42L477.04,39.1L477.23,30.89L477.75,45.94L477.8,43.89L477.82,41.84L477.83,45.94L478.48,34.31L478.55,36.37L478.57,37.05L478.7,35.68L478.96,45.26L479.14,43.21L479.16,45.26L479.35,45.94L479.58,34.31L479.78,37.05L479.79,37.05L480.08,30.89L480.34,41.84L480.47,39.79L480.48,45.26L480.53,45.94L481.05,36.37L481.26,41.15L481.28,41.15L481.46,30.21L481.85,46.63L482.07,45.26L482.08,44.57L482.18,45.94L482.62,32.26L482.82,39.1L482.83,41.84L482.86,37.05L483.25,46.63L483.34,45.94L483.35,47.31L484.13,30.89L484.19,31.58L484.2,32.95L484.22,31.58L484.68,47.99L484.81,41.84L484.82,43.89L484.85,45.94L485.11,34.31L485.41,37.73L485.43,32.95L485.44,32.26L485.82,45.26L486.05,41.84L486.06,44.57L486.16,46.63L486.57,32.95L486.81,42.52L486.83,41.15L487.03,30.21L487.46,44.57L487.53,43.21L487.55,43.89L487.78,46.63L487.89,32.95L488.12,40.47L488.14,35.68L488.28,26.79L488.79,45.94L488.92,45.26L488.93,45.94L489.13,47.31L489.52,32.26L489.81,37.05L489.82,38.42L490.44,45.94L490.49,37.05L490.59,40.47L490.6,39.79L490.82,30.21L491.39,47.31L491.41,44.57L491.42,41.84L491.7,47.99L492.03,34.31L492.14,41.15L492.16,39.79L492.2,43.89L492.42,33.63L492.89,42.52L492.91,44.57L492.94,47.31L493.28,30.89L493.66,45.94L493.67,44.57L493.7,45.26L493.76,31.58L493.79,32.95L493.8,30.21L493.84,26.11L494.41,48.68L494.62,46.63L494.64,45.26L494.68,47.31L494.77,30.21L495.34,43.89L495.36,43.21L495.78,46.63L495.88,41.84L495.98,45.94L495.99,41.15L496.04,46.63L496.61,33.63L496.67,36.37L496.68,34.31L496.7,32.95L497.22,47.99L497.23,46.63L497.25,47.31L498,29.53L498.05,37.05L498.07,38.42L498.14,33.63L498.47,47.31L498.82,38.42L498.83,37.05L498.99,41.15L499.25,27.47L499.55,32.26L499.57,39.1L499.96,35L500.22,47.99L500.26,47.31L500.27,46.63L500.29,47.99L500.75,30.21L500.86,37.73L500.88,35.68L501.51,47.31L501.63,35.68L501.64,38.42L501.79,28.84L502.12,46.63L502.35,38.42L502.36,32.95L502.38,30.89L502.88,48.68L503.05,38.42L503.07,38.42L503.18,31.58L503.31,45.26L503.8,42.52L503.82,43.21L504.11,48.68L504.15,36.37L504.57,39.79L504.58,44.57L504.88,34.31L505,42.52" style="vector-effect: non-scaling-stroke; fill: none; stroke: rgb(99, 110, 250); stroke-opacity: 1; stroke-width: 2px; opacity: 1;"/></g><g class="points"/><g class="text"/></g></g></g><g class="overplot"/><path class="xlines-above crisp" style="fill: none;"/><path class="ylines-above crisp" style="fill: none;"/><g class="overlines-above"/><g class="xaxislayer-above"/><g class="yaxislayer-above"/><g class="overaxes-above"/></g><rect class="rangeslider-mask-min" x="0" y="0" shape-rendering="crispEdges" height="57.15" width="463.49196609492276" style="fill: rgb(0, 0, 0); fill-opacity: 0.4;"/><rect class="rangeslider-mask-max" y="0" shape-rendering="crispEdges" height="57.15" x="505" width="0" style="fill: rgb(0, 0, 0); fill-opacity: 0.4;"/><g class="rangeslider-grabber-min" transform="translate(460.5,0.5)"><rect class="rangeslider-handle-min" x="0" width="4" rx="1" fill="#fff" stroke="#444" stroke-width="1" shape-rendering="crispEdges" y="14" height="29"/><rect class="rangeslider-grabarea-min" width="10" x="0" y="0" fill="transparent" height="57.15"/></g><g class="rangeslider-grabber-max" transform="translate(503.5,0.5)"><rect class="rangeslider-handle-max" x="0" width="4" rx="1" fill="#fff" stroke="#444" stroke-width="1" shape-rendering="crispEdges" y="14" height="29"/><rect class="rangeslider-grabarea-max" width="10" x="0" y="0" fill="transparent" height="57.15"/></g></g><g class="g-ytitle"/><g class="g-xtitle"/></g></svg>